<svg width="32" height="32" viewBox="0 0 32 32" fill="none" xmlns="http://www.w3.org/2000/svg">
<path fill-rule="evenodd" clip-rule="evenodd" d="M26.1809 9.81348C24.997 5.18986 20.8221 1.91616 16.0022 1.91602C10.9931 1.91602 6.67995 5.45153 5.69746 10.3633L4.02559 18.7227C3.51217 21.2909 4.87587 23.8748 7.25996 24.9346C8.1941 25.3497 9.1539 25.6948 10.1307 25.9696L10.3169 26.3883C11.3154 28.6348 13.5432 30.0826 16.0015 30.0827C18.46 30.0827 20.6885 28.635 21.687 26.3883L21.8727 25.9696C22.8495 25.6947 23.8093 25.3497 24.7434 24.9346C27.1276 23.8749 28.4912 21.291 27.9777 18.7227L27.5373 16.5186C27.4559 16.1126 27.0605 15.8495 26.6545 15.9307C26.2485 16.012 25.9854 16.4074 26.0666 16.8135L26.507 19.0166C26.881 20.887 25.8862 22.7857 24.134 23.5645C23.1938 23.9823 22.2254 24.3237 21.2391 24.5887C21.1753 24.597 21.113 24.6135 21.0537 24.6375C17.7507 25.491 14.255 25.4912 10.952 24.6382C10.8916 24.6135 10.8281 24.5968 10.7632 24.5884C9.77722 24.3235 8.80917 23.9821 7.86934 23.5645C6.11716 22.7857 5.12236 20.8869 5.49629 19.0166L7.16817 10.6582C8.01032 6.44744 11.708 3.41602 16.0022 3.41602C20.1338 3.41616 23.7131 6.22261 24.7277 10.1855C24.8305 10.5866 25.2387 10.8281 25.6398 10.7256C26.0411 10.6229 26.2835 10.2147 26.1809 9.81348ZM12.0291 26.4119C12.8881 27.7508 14.3784 28.5826 16.0015 28.5827C17.6248 28.5827 19.1158 27.7509 19.9749 26.4118C17.3528 26.899 14.6513 26.8991 12.0291 26.4119Z" fill="#FFCE35"/>
</svg>
