<svg width="24" height="24" viewBox="0 0 24 24" fill="none" xmlns="http://www.w3.org/2000/svg">
<path d="M14.29 1.56055C14.9147 1.13167 15.6892 0.980055 16.4297 1.14062C16.878 1.23785 17.307 1.4953 17.875 1.82324C18.4431 2.15121 18.8811 2.39383 19.1895 2.7334C19.6988 3.29445 19.9536 4.04139 19.8945 4.79688C19.8622 5.20965 19.5016 5.51845 19.0889 5.48633C18.676 5.45398 18.3671 5.0926 18.3994 4.67969C18.4262 4.33645 18.3104 3.99715 18.0791 3.74219C17.9673 3.61908 17.7884 3.50607 17.125 3.12305C16.4614 2.73993 16.2739 2.64169 16.1113 2.60645C15.7749 2.53364 15.4234 2.60306 15.1396 2.79785C15.0026 2.892 14.8657 3.0535 14.3965 3.65918C13.8011 4.42736 12.8758 4.75167 12.0146 4.75H11.9854C11.1242 4.75169 10.1988 4.42736 9.60352 3.65918C9.13424 3.05344 8.99746 2.89199 8.86035 2.79785C8.57656 2.60312 8.22506 2.53363 7.88867 2.60645C7.72615 2.64172 7.5385 2.73998 6.875 3.12305C6.21149 3.50613 6.03269 3.61906 5.9209 3.74219C5.68957 3.99711 5.57382 4.33649 5.60059 4.67969C5.61355 4.8455 5.68563 5.04463 5.97559 5.75391C6.34357 6.65449 6.15904 7.61799 5.72656 8.3623C5.72156 8.37092 5.71689 8.38003 5.71191 8.38867C5.28325 9.13345 4.54091 9.77398 3.57812 9.90527C2.8192 10.0088 2.61099 10.0455 2.46094 10.1172C2.15027 10.2657 1.91462 10.5363 1.80957 10.8643C1.75891 11.0226 1.75 11.2342 1.75 12C1.75 12.7653 1.75894 12.9764 1.80957 13.1348C1.91462 13.4627 2.15029 13.7334 2.46094 13.8818C2.61099 13.9535 2.81921 13.9903 3.57812 14.0938C4.54091 14.225 5.28325 14.8656 5.71191 15.6104C5.7169 15.619 5.72155 15.6281 5.72656 15.6367C6.15906 16.381 6.34357 17.3445 5.97559 18.2451C5.68562 18.9544 5.61355 19.1535 5.60059 19.3193C5.5738 19.6625 5.68958 20.0019 5.9209 20.2568C6.03269 20.38 6.21152 20.4929 6.875 20.876C7.5385 21.259 7.72616 21.3573 7.88867 21.3926C8.22507 21.4654 8.57655 21.3959 8.86035 21.2012C8.99747 21.107 9.13424 20.9456 9.60352 20.3398C10.1988 19.5717 11.1242 19.2483 11.9854 19.25H12.0146C12.8758 19.2483 13.8011 19.5717 14.3965 20.3398C14.8657 20.9455 15.0026 21.107 15.1396 21.2012C15.4235 21.396 15.7749 21.4654 16.1113 21.3926C16.2739 21.3573 16.4614 21.2591 17.125 20.876C17.7884 20.493 17.9673 20.3799 18.0791 20.2568C18.3104 20.0019 18.4262 19.6626 18.3994 19.3193C18.3864 19.1535 18.3144 18.9544 18.0244 18.2451C17.6565 17.3445 17.841 16.381 18.2734 15.6367C18.2785 15.6281 18.2831 15.619 18.2881 15.6104C18.7167 14.8656 19.4591 14.2251 20.4219 14.0938C21.1807 13.9903 21.389 13.9535 21.5391 13.8818C21.8498 13.7334 22.0854 13.4627 22.1904 13.1348C22.2411 12.9764 22.25 12.7654 22.25 12C22.25 11.2341 22.2411 11.0226 22.1904 10.8643C22.0854 10.5363 21.8498 10.2656 21.5391 10.1172C21.389 10.0455 21.1807 10.0088 20.4219 9.90527C19.4591 9.77395 18.7167 9.13344 18.2881 8.38867C18.2831 8.38004 18.2784 8.37091 18.2734 8.3623C18.0655 8.00424 18.1869 7.54501 18.5449 7.33691C18.903 7.12895 19.3622 7.25134 19.5703 7.60938C19.5764 7.61978 19.5829 7.63019 19.5889 7.64062C19.8446 8.08494 20.2273 8.36474 20.624 8.41895C21.274 8.50758 21.7716 8.566 22.1855 8.76367C22.8692 9.09027 23.388 9.6847 23.6191 10.4062C23.7591 10.8431 23.75 11.344 23.75 12C23.75 12.6558 23.759 13.156 23.6191 13.5928C23.388 14.3143 22.8692 14.9087 22.1855 15.2354C21.7716 15.433 21.274 15.4914 20.624 15.5801C20.2273 15.6343 19.8446 15.9141 19.5889 16.3584C19.5829 16.3688 19.5763 16.3793 19.5703 16.3896C19.3124 16.8335 19.2614 17.3062 19.4131 17.6777C19.6613 18.2849 19.8587 18.7449 19.8945 19.2021C19.9536 19.9576 19.6988 20.7046 19.1895 21.2656C18.8811 21.6052 18.4431 21.8478 17.875 22.1758C17.307 22.5037 16.878 22.7612 16.4297 22.8584C15.6891 23.019 14.9147 22.8674 14.29 22.4385C13.9119 22.1788 13.6127 21.7774 13.2109 21.2588C12.9647 20.9411 12.5303 20.749 12.0176 20.75H11.9824C11.4698 20.749 11.0352 20.9411 10.7891 21.2588C10.3875 21.7772 10.088 22.1778 9.70996 22.4375C9.08525 22.8664 8.31085 23.019 7.57031 22.8584C7.12201 22.7612 6.6931 22.5028 6.125 22.1748C5.55699 21.8469 5.11887 21.6042 4.81055 21.2646C4.30143 20.7036 4.04641 19.9574 4.10547 19.2021C4.14125 18.7448 4.33869 18.2849 4.58691 17.6777C4.73867 17.3063 4.68749 16.8344 4.42969 16.3906C4.42356 16.3801 4.4172 16.3689 4.41113 16.3584C4.15534 15.9141 3.77268 15.6342 3.37598 15.5801C2.72601 15.4914 2.2284 15.4331 1.81445 15.2354C1.13084 14.9087 0.61201 14.3143 0.380859 13.5928C0.240962 13.156 0.249996 12.6558 0.25 12C0.25 11.344 0.240904 10.8431 0.380859 10.4062C0.612014 9.68472 1.13082 9.09029 1.81445 8.76367C2.2284 8.56597 2.72601 8.50758 3.37598 8.41895C3.77269 8.36478 4.15534 8.08496 4.41113 7.64062C4.41714 7.63019 4.42364 7.61979 4.42969 7.60938C4.68765 7.16547 4.73873 6.6928 4.58691 6.32129C4.33869 5.71408 4.14123 5.25422 4.10547 4.79688C4.04641 4.04157 4.30141 3.29538 4.81055 2.73438C5.11888 2.39477 5.55698 2.15216 6.125 1.82422C6.6931 1.49623 7.12201 1.23787 7.57031 1.14062C8.31085 0.98003 9.08525 1.13267 9.70996 1.56152C10.088 1.82117 10.3875 2.22185 10.7891 2.74023C11.0352 3.05794 11.4698 3.251 11.9824 3.25H12.0176C12.5303 3.25099 12.9647 3.05798 13.2109 2.74023C13.6127 2.22165 13.9119 1.8202 14.29 1.56055ZM12 8.25C14.0711 8.25 15.75 9.92893 15.75 12C15.7497 14.0708 14.0709 15.75 12 15.75C9.92914 15.7499 8.25026 14.0708 8.25 12C8.25 11.5632 8.32544 11.1418 8.46387 10.75C8.60196 10.3596 9.03041 10.155 9.4209 10.293C9.81123 10.4311 10.0159 10.8596 9.87793 11.25C9.79547 11.4835 9.75 11.7359 9.75 12C9.75026 13.2424 10.7576 14.2499 12 14.25C13.2425 14.25 14.2497 13.2424 14.25 12C14.25 10.7574 13.2426 9.75 12 9.75C11.586 9.74994 11.2503 9.41395 11.25 9C11.25 8.58582 11.5858 8.25006 12 8.25Z" fill="#242651"/>
</svg>
