<svg width="24" height="24" viewBox="0 0 24 24" fill="none" xmlns="http://www.w3.org/2000/svg">
<path d="M7 17.25C7.41421 17.25 7.75 17.5858 7.75 18C7.75 18.4142 7.41421 18.75 7 18.75H3C2.58579 18.75 2.25 18.4142 2.25 18C2.25 17.5858 2.58579 17.25 3 17.25H7ZM21 17.25C21.4142 17.25 21.75 17.5858 21.75 18C21.75 18.4142 21.4142 18.75 21 18.75H11C10.5858 18.75 10.25 18.4142 10.25 18C10.25 17.5858 10.5858 17.25 11 17.25H21ZM13 11.25C13.4142 11.25 13.75 11.5858 13.75 12C13.75 12.4142 13.4142 12.75 13 12.75H3C2.58579 12.75 2.25 12.4142 2.25 12C2.25 11.5858 2.58579 11.25 3 11.25H13ZM21 11.25C21.4142 11.25 21.75 11.5858 21.75 12C21.75 12.4142 21.4142 12.75 21 12.75H17C16.5858 12.75 16.25 12.4142 16.25 12C16.25 11.5858 16.5858 11.25 17 11.25H21ZM21 5.25C21.4142 5.25 21.75 5.58579 21.75 6C21.75 6.41421 21.4142 6.75 21 6.75H3C2.58579 6.75 2.25 6.41421 2.25 6C2.25 5.58579 2.58579 5.25 3 5.25H21Z" fill="#FFCE34"/>
</svg>
