<svg width="24" height="24" viewBox="0 0 24 24" fill="none" xmlns="http://www.w3.org/2000/svg">
<path d="M11.5996 1.36523C11.8174 1.22787 12.0909 1.21234 12.3232 1.32324H12.3242L12.3262 1.32422C12.3274 1.32481 12.3292 1.32627 12.3311 1.32715C12.3348 1.32894 12.3397 1.33106 12.3457 1.33398C12.3583 1.34019 12.3761 1.3491 12.3984 1.36035C12.4435 1.38308 12.5079 1.41659 12.5889 1.45996C12.7508 1.54668 12.9807 1.67513 13.2607 1.8457C13.8202 2.18649 14.5845 2.69755 15.4111 3.38574C17.0588 4.75747 18.9923 6.86169 20.0215 9.74805C20.1606 10.1382 19.9565 10.5669 19.5664 10.7061C19.1763 10.8451 18.7475 10.642 18.6084 10.252C17.7003 7.70497 15.9765 5.80895 14.4512 4.53906C13.8305 4.02237 13.2482 3.61468 12.7783 3.31348C12.8004 3.92492 12.8312 4.56481 12.8584 5.21875C12.9053 6.34436 12.9392 7.50409 12.874 8.54688C12.8099 9.57253 12.6464 10.5787 12.2422 11.3486C12.0345 11.7442 11.7504 12.1019 11.3613 12.3594C10.9666 12.6205 10.5068 12.75 10 12.75C9.3687 12.75 8.79891 12.5895 8.32031 12.2363C7.84879 11.8883 7.52646 11.3977 7.30371 10.8408C7.03287 10.1636 6.88386 9.32222 6.81055 8.3584C6.66852 8.5425 6.51988 8.74359 6.37305 8.96289C5.55004 10.1921 4.75 11.9229 4.75 14C4.75 18.1284 7.91141 21.25 12 21.25C16.0886 21.25 19.25 18.1284 19.25 14C19.25 13.5858 19.5858 13.25 20 13.25C20.4142 13.25 20.75 13.5858 20.75 14C20.75 18.9625 16.9114 22.75 12 22.75C7.08859 22.75 3.25 18.9625 3.25 14C3.25 11.5317 4.2 9.51234 5.12695 8.12793C5.59168 7.43389 6.05656 6.8905 6.40723 6.51855C6.58281 6.33233 6.73098 6.18812 6.83691 6.08887C6.88983 6.03929 6.93244 6.00066 6.96289 5.97363C6.97804 5.96019 6.99008 5.94915 6.99902 5.94141C7.00344 5.93759 7.00695 5.93405 7.00977 5.93164C7.01117 5.93044 7.01268 5.92955 7.01367 5.92871L7.01562 5.92773L7.0166 5.92676C7.23961 5.7387 7.55181 5.69643 7.81641 5.81934C8.08101 5.94233 8.25 6.2082 8.25 6.5C8.25 8.24691 8.37973 9.49278 8.69629 10.2842C8.8485 10.6646 9.02627 10.893 9.21094 11.0293C9.38857 11.1604 9.63134 11.25 10 11.25C10.2429 11.25 10.4084 11.1918 10.5332 11.1094C10.6635 11.0232 10.7937 10.8807 10.9141 10.6514C11.1661 10.1713 11.3151 9.42745 11.376 8.45312C11.4358 7.49594 11.4072 6.4056 11.3604 5.28125C11.3142 4.17244 11.25 3.02069 11.25 2C11.25 1.74251 11.3818 1.50261 11.5996 1.36523Z" fill="#242651"/>
</svg>
