<svg width="24" height="24" viewBox="0 0 24 24" fill="none" xmlns="http://www.w3.org/2000/svg">
<path d="M17.376 2.58398C17.6057 2.23938 18.0714 2.14631 18.416 2.37598C18.7607 2.60574 18.8538 3.07137 18.624 3.41602L6.62402 21.416C6.39426 21.7607 5.92863 21.8538 5.58398 21.624C5.23944 21.3942 5.14624 20.9286 5.37598 20.584L17.376 2.58398ZM18 14.25C18.4142 14.25 18.75 14.5858 18.75 15C18.75 15.4142 18.4142 15.75 18 15.75C16.7574 15.75 15.75 16.7574 15.75 18C15.75 19.2426 16.7574 20.25 18 20.25C19.2426 20.25 20.25 19.2426 20.25 18C20.25 17.5858 20.5858 17.25 21 17.25C21.4142 17.25 21.75 17.5858 21.75 18C21.75 20.0711 20.0711 21.75 18 21.75C15.9289 21.75 14.25 20.0711 14.25 18C14.25 15.929 15.929 14.25 18 14.25ZM6 2.25C8.07104 2.25 9.74996 3.92897 9.75 6C9.75 8.07107 8.07107 9.75 6 9.75C3.92893 9.75 2.25 8.07107 2.25 6C2.25004 5.58582 2.58581 5.25 3 5.25C3.41419 5.25 3.74996 5.58582 3.75 6C3.75 7.24264 4.75736 8.25 6 8.25C7.24264 8.25 8.25 7.24264 8.25 6C8.24996 4.7574 7.24261 3.75 6 3.75C5.58579 3.75 5.25 3.41421 5.25 3C5.25004 2.58582 5.58581 2.25 6 2.25Z" fill="#242651"/>
</svg>
