<svg width="64" height="64" viewBox="0 0 64 64" fill="none" xmlns="http://www.w3.org/2000/svg">
<path d="M32 12.583C32.414 12.5832 32.7498 12.9191 32.75 13.333V50.666C32.75 51.0801 32.4141 51.4158 32 51.416C31.5859 51.4158 31.25 51.0801 31.25 50.666V32.75H13.333C12.9191 32.7498 12.5832 32.414 12.583 32C12.5832 31.586 12.9191 31.2502 13.333 31.25H31.25V13.333C31.2502 12.9191 31.586 12.5832 32 12.583ZM50.666 31.25C51.0801 31.25 51.4158 31.5859 51.416 32C51.4158 32.4141 51.0801 32.75 50.666 32.75H40C39.586 32.7498 39.2502 32.414 39.25 32C39.2502 31.586 39.586 31.2502 40 31.25H50.666Z" fill="#22272F"/>
</svg>
