<svg width="39" height="39" viewBox="0 0 39 39" fill="none" xmlns="http://www.w3.org/2000/svg">
<path d="M19.417 0C19.8309 0.000176167 20.1668 0.336045 20.167 0.75V38.083C20.167 38.4971 19.8311 38.8328 19.417 38.833C19.0029 38.8328 18.667 38.4971 18.667 38.083V20.167H0.75C0.336045 20.1668 0.000176167 19.8309 0 19.417C0.000175577 19.003 0.336044 18.6672 0.75 18.667H18.667V0.75C18.6672 0.336044 19.003 0.000175578 19.417 0ZM38.083 18.667C38.4971 18.667 38.8328 19.0029 38.833 19.417C38.8328 19.8311 38.4971 20.167 38.083 20.167H27.417C27.003 20.1668 26.6672 19.8309 26.667 19.417C26.6672 19.003 27.003 18.6672 27.417 18.667H38.083Z" fill="white"/>
</svg>
