<svg width="20" height="16" viewBox="0 0 20 16" fill="none" xmlns="http://www.w3.org/2000/svg">
<path fill-rule="evenodd" clip-rule="evenodd" d="M18.75 6.99994C19.0533 6.99994 19.3273 7.18258 19.4434 7.46283C19.5594 7.74306 19.4947 8.06575 19.2803 8.28022L12.2803 15.2802C11.9874 15.5731 11.5126 15.5731 11.2197 15.2802C10.9268 14.9873 10.9269 14.5126 11.2197 14.2197L16.9395 8.49994H0.75C0.33581 8.49994 3.7622e-05 8.16412 0 7.74994C0 7.33573 0.335786 6.99994 0.75 6.99994H18.75ZM11.2197 0.219669C11.5126 -0.0732235 11.9874 -0.0732223 12.2803 0.219669L16.2803 4.21967C16.5732 4.51256 16.5732 4.98732 16.2803 5.28022C15.9874 5.57309 15.5126 5.5731 15.2197 5.28022L11.2197 1.28022C10.9268 0.987324 10.9268 0.512563 11.2197 0.219669Z" fill="#22272F"/>
</svg>
