<svg width="24" height="24" viewBox="0 0 24 24" fill="none" xmlns="http://www.w3.org/2000/svg">
<path d="M16 0.25C16.4142 0.25 16.75 0.585786 16.75 1V1.36621C17.6402 1.46164 18.386 1.63969 19.0645 1.98535C20.3345 2.63249 21.3675 3.66546 22.0146 4.93555C22.4044 5.70049 22.5805 6.55103 22.666 7.59766C22.7508 8.63571 22.75 9.93202 22.75 11.5996V12.4004C22.75 14.068 22.7508 15.3643 22.666 16.4023C22.5805 17.449 22.4044 18.2995 22.0146 19.0645C21.3675 20.3345 20.3345 21.3675 19.0645 22.0146C18.2995 22.4044 17.449 22.5805 16.4023 22.666C15.3643 22.7508 14.068 22.75 12.4004 22.75H10.5C8.23388 22.75 6.91492 22.7599 5.83008 22.3916C3.84314 21.717 2.28296 20.1569 1.6084 18.1699C1.24015 17.0851 1.25 15.7661 1.25 13.5V13C1.25 12.5858 1.5858 12.25 2 12.25C2.41421 12.25 2.75 12.5858 2.75 13V13.5C2.75 15.8879 2.75979 16.8963 3.02832 17.6875C3.55296 19.233 4.76696 20.447 6.3125 20.9717C7.1037 21.2402 8.11216 21.25 10.5 21.25H12.4004C14.0925 21.25 15.3166 21.2495 16.2793 21.1709C17.2334 21.0929 17.8654 20.9419 18.3838 20.6777C19.3714 20.1744 20.1744 19.3714 20.6777 18.3838C20.9419 17.8654 21.0929 17.2334 21.1709 16.2793C21.2495 15.3165 21.25 14.0925 21.25 12.4004V11.5996C21.25 9.90753 21.2495 8.68345 21.1709 7.7207C21.0929 6.76657 20.9419 6.13459 20.6777 5.61621C20.1744 4.62859 19.3714 3.82556 18.3838 3.32227C17.9558 3.1042 17.4502 2.96435 16.75 2.87793V4C16.75 4.41421 16.4142 4.75 16 4.75C15.5858 4.74999 15.25 4.4142 15.25 4V2.77637C14.4709 2.75207 13.5422 2.75 12.4004 2.75H8.75V4C8.75 4.41421 8.41421 4.75 8 4.75C7.5858 4.74999 7.25 4.4142 7.25 4V2.75H6.83008C4.57697 2.75001 2.75 4.57697 2.75 6.83008C2.75024 7.08236 2.95475 7.28689 3.20703 7.28711H17C17.4142 7.28711 17.75 7.6229 17.75 8.03711C17.75 8.45129 17.4142 8.78711 17 8.78711H3.20703C2.12632 8.78689 1.25024 7.91078 1.25 6.83008C1.25 3.74854 3.74855 1.25001 6.83008 1.25H7.25V1C7.25 0.585795 7.5858 0.250014 8 0.25C8.41421 0.25 8.75 0.585786 8.75 1V1.25H12.4004C13.5012 1.25 14.4402 1.25221 15.25 1.27637V1C15.25 0.585795 15.5858 0.250014 16 0.25ZM8 16C8.55228 16 9 16.4477 9 17C9 17.5523 8.55228 18 8 18C7.44773 18 7 17.5523 7 17C7 16.4477 7.44773 16 8 16ZM12 16C12.5523 16 13 16.4477 13 17C13 17.5523 12.5523 18 12 18C11.4477 18 11 17.5523 11 17C11 16.4477 11.4477 16 12 16ZM16 16C16.5523 16 17 16.4477 17 17C17 17.5523 16.5523 18 16 18C15.4477 18 15 17.5523 15 17C15 16.4477 15.4477 16 16 16ZM8 12C8.55228 12 9 12.4477 9 13C9 13.5523 8.55228 14 8 14C7.44773 14 7 13.5523 7 13C7 12.4477 7.44773 12 8 12ZM12 12C12.5523 12 13 12.4477 13 13C13 13.5523 12.5523 14 12 14C11.4477 14 11 13.5523 11 13C11 12.4477 11.4477 12 12 12ZM16 12C16.5523 12 17 12.4477 17 13C17 13.5523 16.5523 14 16 14C15.4477 14 15 13.5523 15 13C15 12.4477 15.4477 12 16 12Z" fill="#FAFAFA"/>
</svg>
