<svg width="24" height="24" viewBox="0 0 24 24" fill="none" xmlns="http://www.w3.org/2000/svg">
<path fill-rule="evenodd" clip-rule="evenodd" d="M14.4472 10.9471C14.7271 10.6421 15.2015 10.6215 15.5068 10.9012C15.8121 11.1811 15.8325 11.6554 15.5527 11.9608L9.55268 18.5067C9.41452 18.6574 9.22091 18.7453 9.01654 18.7498C8.81203 18.7543 8.61432 18.6748 8.46967 18.5301L3.46967 13.5301C3.17678 13.2372 3.17678 12.7625 3.46967 12.4696C3.76256 12.1767 4.23732 12.1767 4.53022 12.4696L8.97553 16.9149L14.4472 10.9471ZM19.4472 5.49301C19.7271 5.18776 20.2015 5.16725 20.5068 5.44711C20.812 5.72702 20.8325 6.20137 20.5527 6.50668L17.8027 9.50668C17.5228 9.81194 17.0484 9.83245 16.7431 9.55258C16.4379 9.27268 16.4173 8.79832 16.6972 8.49301L19.4472 5.49301Z" fill="#FAFAFA"/>
</svg>
