<svg width="20" height="20" viewBox="0 0 20 20" fill="none" xmlns="http://www.w3.org/2000/svg">
<path d="M3.71289 4.4375C4.02338 3.98116 4.64499 3.86278 5.10156 4.17285C5.55826 4.48341 5.67677 5.1058 5.36621 5.5625C5.0608 6.01169 4.8016 6.4932 4.59277 7H11C11.5523 7 12 7.44772 12 8C12 8.55228 11.5523 9 11 9H4.06445C4.02293 9.32759 4 9.66122 4 10C4 10.3386 4.02374 10.6722 4.06543 11H9C9.55229 11 10 11.4477 10 12C10 12.5523 9.55229 13 9 13H4.59473C5.80089 15.9257 8.71682 17.9998 12.1426 18C14.5801 18 16.7642 16.9488 18.2559 15.2852C18.6246 14.8744 19.2569 14.8405 19.668 15.209C20.0788 15.5777 20.1127 16.21 19.7441 16.6211C17.8853 18.694 15.1662 20 12.1426 20C7.6112 19.9998 3.75781 17.0641 2.46387 13H1C0.447715 13 0 12.5523 0 12C0 11.4477 0.447715 11 1 11H2.05078C2.01771 10.6712 2 10.3376 2 10C2 9.6625 2.01858 9.32899 2.05176 9H1C0.447715 9 0 8.55228 0 8C0 7.44772 0.447715 7 1 7H2.46582C2.75846 6.0817 3.18076 5.22006 3.71289 4.4375ZM12.1426 0C15.1662 0 17.8853 1.30601 19.7441 3.37891C20.1127 3.78996 20.0788 4.42227 19.668 4.79102C19.2569 5.15946 18.6246 5.12561 18.2559 4.71484C16.7642 3.05123 14.5801 2 12.1426 2C10.7923 2.00008 9.52136 2.32266 8.40332 2.8916C7.91121 3.1416 7.30896 2.94514 7.05859 2.45312C6.80857 1.96107 7.00517 1.35884 7.49707 1.1084C8.89034 0.399506 10.471 8.33967e-05 12.1426 0Z" fill="#242552"/>
</svg>
