<svg width="16" height="16" viewBox="0 0 16 16" fill="none" xmlns="http://www.w3.org/2000/svg">
<path fill-rule="evenodd" clip-rule="evenodd" d="M7.33301 0.583008C11.0608 0.583008 14.0828 3.60524 14.083 7.33301C14.083 8.26248 13.8949 9.15019 13.5537 9.95801C13.3925 10.3396 12.9519 10.5186 12.5703 10.3574C12.1891 10.196 12.0107 9.75542 12.1719 9.37402C12.4364 8.74763 12.583 8.0583 12.583 7.33301C12.5828 4.43366 10.2324 2.08301 7.33301 2.08301C4.43377 2.08318 2.08318 4.43377 2.08301 7.33301C2.08301 10.2324 4.43366 12.5828 7.33301 12.583C8.28147 12.583 9.16911 12.332 9.93555 11.8936C10.2391 11.7199 10.4902 11.5755 10.6895 11.4736C10.871 11.3808 11.1011 11.2731 11.3408 11.2422L11.5557 11.2246C11.6317 11.2225 11.7124 11.2251 11.7969 11.2363C11.9654 11.2589 12.1091 11.3099 12.2354 11.3623C12.4428 11.4485 12.6117 11.5814 12.75 11.7041C12.8895 11.8279 13.052 11.9914 13.2373 12.1768L14.5303 13.4697C14.8228 13.7626 14.8231 14.2375 14.5303 14.5303C14.2375 14.8231 13.7626 14.8228 13.4697 14.5303L12.1768 13.2373C11.9783 13.0389 11.8521 12.9133 11.7539 12.8262C11.6829 12.7632 11.6526 12.7447 11.6504 12.7432C11.5922 12.7195 11.5852 12.7218 11.5977 12.7236C11.5897 12.7239 11.5737 12.7254 11.5469 12.7285C11.5643 12.7256 11.5237 12.7325 11.373 12.8096C11.2127 12.8916 10.9977 13.0139 10.6807 13.1953C9.69339 13.7601 8.5497 14.083 7.33301 14.083C3.60524 14.0828 0.583008 11.0608 0.583008 7.33301C0.583184 3.60534 3.60534 0.583184 7.33301 0.583008Z" fill="#242552"/>
</svg>
