<svg width="24" height="24" viewBox="0 0 24 24" fill="none" xmlns="http://www.w3.org/2000/svg">
<path d="M2 13.25C2.41421 13.25 2.75 13.5858 2.75 14V15.5996C2.75 16.732 2.75035 17.5366 2.80176 18.166C2.85247 18.7866 2.94936 19.1711 3.10449 19.4756C3.41605 20.087 3.91305 20.5839 4.52441 20.8955C4.82889 21.0506 5.21336 21.1475 5.83398 21.1982C6.46335 21.2497 7.26798 21.25 8.40039 21.25H10C10.4142 21.25 10.75 21.5858 10.75 22C10.75 22.4142 10.4142 22.75 10 22.75H8.40039C7.29277 22.75 6.41651 22.7509 5.71191 22.6934C4.99862 22.6351 4.39487 22.5132 3.84375 22.2324C2.94998 21.777 2.22298 21.05 1.76758 20.1562C1.48682 19.6051 1.36492 19.0014 1.30664 18.2881C1.24909 17.5835 1.25 16.7072 1.25 15.5996V14C1.25 13.5858 1.58579 13.25 2 13.25ZM18.9697 13.9697C19.2626 13.6768 19.7374 13.6768 20.0303 13.9697C20.3232 14.2626 20.3232 14.7374 20.0303 15.0303L18.5303 16.5303C18.2374 16.8232 17.7626 16.8232 17.4697 16.5303C17.1768 16.2374 17.1768 15.7626 17.4697 15.4697L18.9697 13.9697ZM17.4697 7.46973C17.7626 7.17683 18.2374 7.17683 18.5303 7.46973L22.5303 11.4697C22.7448 11.6842 22.8094 12.0069 22.6934 12.2871C22.5773 12.5674 22.3033 12.75 22 12.75H10C9.58579 12.75 9.25 12.4142 9.25 12C9.25 11.5858 9.58579 11.25 10 11.25H20.1895L17.4697 8.53027C17.1768 8.23738 17.1768 7.76262 17.4697 7.46973ZM10 1.25C10.4142 1.25 10.75 1.58579 10.75 2C10.75 2.41421 10.4142 2.75 10 2.75H8.40039C7.26798 2.75 6.46335 2.75035 5.83398 2.80176C5.21336 2.85247 4.82889 2.94936 4.52441 3.10449C3.91305 3.41605 3.41605 3.91305 3.10449 4.52441C2.94936 4.82889 2.85247 5.21336 2.80176 5.83398C2.75035 6.46335 2.75 7.26798 2.75 8.40039V10C2.75 10.4142 2.41421 10.75 2 10.75C1.58579 10.75 1.25 10.4142 1.25 10V8.40039C1.25 7.29277 1.24909 6.41651 1.30664 5.71191C1.36492 4.99862 1.48682 4.39487 1.76758 3.84375C2.22298 2.94998 2.94998 2.22298 3.84375 1.76758C4.39487 1.48682 4.99862 1.36492 5.71191 1.30664C6.41651 1.24909 7.29277 1.25 8.40039 1.25H10Z" fill="#E2074C"/>
</svg>
