<svg width="32" height="32" viewBox="0 0 32 32" fill="none" xmlns="http://www.w3.org/2000/svg">
<path d="M14.834 1.25C19.6539 1.25014 23.8289 4.52387 25.0127 9.14746C25.1153 9.54868 24.8729 9.95684 24.4717 10.0596C24.0706 10.1619 23.6623 9.92052 23.5596 9.51953C22.5449 5.55662 18.9657 2.75014 14.834 2.75C10.5399 2.75009 6.84214 5.78149 6 9.99219L4.32812 18.3506C3.95423 20.2209 4.94911 22.1196 6.70117 22.8984C7.64634 23.3185 8.62055 23.6602 9.6123 23.9258C9.66647 23.934 9.71962 23.9472 9.77051 23.9668C13.0817 24.8245 16.5863 24.8246 19.8975 23.9668C19.9477 23.9474 20.0002 23.9341 20.0537 23.9258C21.0459 23.6602 22.0203 23.3186 22.9658 22.8984C24.718 22.1197 25.7128 20.221 25.3389 18.3506L24.8984 16.1475C24.8173 15.7415 25.0804 15.3461 25.4863 15.2646C25.8924 15.1834 26.2877 15.4466 26.3691 15.8525L26.8096 18.0566C27.323 20.625 25.9595 23.2089 23.5752 24.2686C22.6418 24.6834 21.6821 25.026 20.7061 25.3008L20.5195 25.7227C19.5211 27.9691 17.2923 29.4168 14.834 29.417C12.3758 29.4169 10.148 27.9688 9.14941 25.7227L8.96191 25.3008C7.98563 25.026 7.02545 24.6835 6.0918 24.2686C3.70782 23.2088 2.34404 20.6248 2.85742 18.0566L4.5293 9.69727C5.51177 4.78558 9.82499 1.25009 14.834 1.25ZM18.8057 25.7451C16.1842 26.2321 13.4838 26.232 10.8623 25.7451C11.7213 27.084 13.2109 27.9169 14.834 27.917C16.4571 27.9168 17.9466 27.084 18.8057 25.7451Z" fill="#242651"/>
</svg>
