<svg width="24" height="24" viewBox="0 0 24 24" fill="none" xmlns="http://www.w3.org/2000/svg">
<path d="M11.9995 1.25C15.7004 1.25018 18.9069 3.76422 19.8159 7.31445C19.9182 7.7154 19.6757 8.12371 19.2749 8.22656C18.8737 8.32915 18.4655 8.08669 18.3628 7.68555C17.6228 4.79619 15.012 2.75018 11.9995 2.75C8.86844 2.75012 6.17224 4.96008 5.55806 8.03027L4.30513 14.2998C4.04215 15.6151 4.74122 16.9529 5.97603 17.502C6.67182 17.8112 7.3886 18.0636 8.11861 18.2598C8.16129 18.2667 8.2029 18.2779 8.24361 18.292C10.7014 18.9295 13.3036 18.9287 15.7612 18.29C15.7995 18.2772 15.8384 18.2663 15.8784 18.2598C16.6089 18.0635 17.3267 17.8114 18.0229 17.502C19.2577 16.9529 19.9577 15.6151 19.6948 14.2998L19.3647 12.6475C19.2835 12.2413 19.5465 11.8459 19.9526 11.7646C20.3585 11.6837 20.7541 11.9467 20.8354 12.3525L21.1655 14.0049C21.5681 16.0183 20.4993 18.043 18.6323 18.873C17.9507 19.176 17.2503 19.4283 16.5385 19.6328L16.435 19.8682C15.656 21.6207 13.9173 22.7499 11.9995 22.75C10.0815 22.75 8.34294 21.6207 7.56392 19.8682L7.45943 19.6328C6.74817 19.4284 6.0488 19.1758 5.36763 18.873C3.50032 18.0431 2.43073 16.0185 2.83345 14.0049L4.08736 7.73633C4.84169 3.9649 8.15336 1.25012 11.9995 1.25ZM14.5503 20.0723C12.8614 20.3363 11.1365 20.3364 9.44771 20.0723C10.0748 20.8075 11.0019 21.25 11.9995 21.25C12.9969 21.25 13.9232 20.8073 14.5503 20.0723Z" fill="#242552"/>
</svg>
