<svg width="24" height="24" viewBox="0 0 24 24" fill="none" xmlns="http://www.w3.org/2000/svg">
<path d="M12 1.25C15.7011 1.25 18.9073 3.76415 19.8164 7.31445C19.9188 7.71556 19.6765 8.12387 19.2754 8.22656C18.8743 8.32886 18.466 8.08659 18.3633 7.68555C17.6232 4.79612 15.0127 2.75 12 2.75C8.86915 2.75035 6.17271 4.9602 5.55859 8.03027L4.30566 14.2998C4.04276 15.615 4.74203 16.9528 5.97656 17.502C6.67249 17.8113 7.38996 18.0636 8.12012 18.2598C8.16013 18.2663 8.19899 18.2773 8.2373 18.29C10.6974 18.9296 13.3025 18.9294 15.7627 18.29C15.801 18.2772 15.8399 18.2663 15.8799 18.2598C16.6102 18.0636 17.3274 17.8113 18.0234 17.502C19.2585 16.953 19.9583 15.6153 19.6953 14.2998L19.3652 12.6475C19.2841 12.2415 19.5473 11.8461 19.9531 11.7646C20.3592 11.6834 20.7545 11.9466 20.8359 12.3525L21.166 14.0049C21.5687 16.0185 20.5001 18.0431 18.6328 18.873C17.9514 19.1759 17.2516 19.4284 16.54 19.6328L16.4365 19.8682C15.6576 21.6207 13.9188 22.7499 12.001 22.75C10.0831 22.75 8.34445 21.6207 7.56543 19.8682L7.46094 19.6328C6.74953 19.4284 6.04947 19.1758 5.36816 18.873C3.50113 18.043 2.43134 16.0183 2.83398 14.0049L4.08789 7.73633C4.84216 3.96502 8.15407 1.25035 12 1.25ZM14.5518 20.0723C12.8629 20.3363 11.138 20.3364 9.44922 20.0723C10.0763 20.8075 11.0034 21.25 12.001 21.25C12.9983 21.2499 13.9247 20.8073 14.5518 20.0723Z" fill="#FAFAFA"/>
</svg>
