<svg width="24" height="24" viewBox="0 0 24 24" fill="none" xmlns="http://www.w3.org/2000/svg">
<path d="M11.2734 0.821289C11.7501 0.690453 12.2539 0.690387 12.7305 0.821289C13.4377 1.01581 13.929 1.56972 14.3516 2.21875C14.7804 2.87753 15.2411 3.80151 15.8174 4.9541L15.8652 5.0498C16.2016 5.72258 16.3 5.89849 16.4268 6.02344C16.5274 6.12255 16.6446 6.20356 16.7725 6.26367C16.9335 6.33931 17.1325 6.37106 17.8799 6.4541C19.0804 6.5875 20.0382 6.69333 20.7559 6.8457C21.4558 6.99435 22.1043 7.21954 22.5322 7.7207C22.9996 8.26822 23.2341 8.97713 23.1846 9.69531C23.1391 10.3529 22.7513 10.9198 22.2773 11.4561C21.7914 12.0057 21.0853 12.6605 20.2002 13.4824L20.0596 13.6133C19.4502 14.1791 19.2935 14.3397 19.207 14.5107C19.1221 14.6789 19.0765 14.8643 19.0732 15.0527C19.07 15.2444 19.1328 15.4594 19.4082 16.2441C19.82 17.4178 20.1472 18.347 20.3301 19.0693C20.5063 19.7654 20.6015 20.4497 20.3594 21.043C20.0343 21.8391 19.3551 22.4377 18.5244 22.6602C17.9055 22.8258 17.2386 22.6452 16.5703 22.3828C15.8767 22.1105 14.9954 21.6696 13.8828 21.1133L13.2383 20.791C12.5263 20.435 12.3316 20.3497 12.1426 20.3281C12.0495 20.3176 11.9544 20.3176 11.8613 20.3281C11.6722 20.3496 11.4779 20.4349 10.7656 20.791L10.1211 21.1133C9.00853 21.6696 8.12718 22.1105 7.43359 22.3828C6.76525 22.6452 6.09848 22.8256 5.47949 22.6602C4.64868 22.4378 3.96967 21.8392 3.64453 21.043C3.45643 20.5823 3.47509 20.0775 3.56348 19.5771C3.6529 19.071 3.8331 18.469 4.06934 17.7627C4.20072 17.3701 4.62589 17.158 5.01855 17.2891C5.41109 17.4205 5.62337 17.8456 5.49219 18.2383C5.25762 18.9396 5.10853 19.4503 5.04004 19.8379C4.97065 20.2307 5.00304 20.4014 5.0332 20.4756C5.18098 20.8374 5.48965 21.1098 5.86719 21.2109C5.98112 21.2413 6.24544 21.2377 6.88574 20.9863C7.50147 20.7445 8.31087 20.3411 9.4502 19.7715L10.0947 19.4492C10.7081 19.1426 11.1776 18.8952 11.6934 18.8369C11.8983 18.8138 12.1056 18.8138 12.3105 18.8369C12.8263 18.8953 13.2958 19.1426 13.9092 19.4492L14.5537 19.7715C15.6932 20.3412 16.5024 20.7446 17.1182 20.9863C17.7589 21.2378 18.023 21.2414 18.1367 21.2109C18.5141 21.1097 18.823 20.8373 18.9707 20.4756C19.0151 20.3663 19.0447 20.1039 18.876 19.4375C18.7136 18.7963 18.4149 17.9432 17.9932 16.7412C17.7568 16.0676 17.5643 15.5522 17.5732 15.0273C17.5804 14.6126 17.6811 14.2043 17.8682 13.834C18.1049 13.3657 18.5161 13.0003 19.0391 12.5146L19.1797 12.3838C20.089 11.5394 20.7293 10.9437 21.1543 10.4629C21.5909 9.96886 21.6794 9.72346 21.6885 9.5918C21.7109 9.26551 21.6039 8.94311 21.3916 8.69434C21.3058 8.59398 21.0888 8.45036 20.4443 8.31348C19.8167 8.18023 18.9479 8.08232 17.7148 7.94531C17.0714 7.87381 16.5733 7.82771 16.1338 7.62109C15.8525 7.48881 15.5954 7.30991 15.374 7.0918C15.0282 6.75086 14.8129 6.29966 14.5234 5.7207L14.4756 5.625C13.8823 4.43836 13.4658 3.60713 13.0947 3.03711C12.7178 2.45814 12.4856 2.30965 12.333 2.26758C12.1164 2.2081 11.8875 2.20816 11.6709 2.26758C11.5184 2.30948 11.2864 2.45776 10.9092 3.03711C10.5381 3.6071 10.1216 4.43836 9.52832 5.625L9.48047 5.7207C9.191 6.29964 8.97567 6.75084 8.62988 7.0918C8.40853 7.30991 8.1513 7.48878 7.87012 7.62109C7.43058 7.82779 6.93251 7.87382 6.28906 7.94531C5.05598 8.08232 4.18727 8.18025 3.55957 8.31348C2.9153 8.45027 2.6983 8.59396 2.6123 8.69434C2.39987 8.94315 2.293 9.26541 2.31543 9.5918C2.32453 9.72349 2.41278 9.96869 2.84961 10.4629C3.27465 10.9437 3.91487 11.5394 4.82422 12.3838L4.96484 12.5146C5.37617 12.8966 5.72372 13.2998 5.9082 13.5244C6.1708 13.8444 6.12434 14.3172 5.80469 14.5801C5.48468 14.8429 5.01196 14.7964 4.74902 14.4766C4.58547 14.2774 4.28617 13.9307 3.94434 13.6133L3.80371 13.4824C2.91861 12.6605 2.21251 12.0057 1.72656 11.4561C1.2525 10.9198 0.864777 10.3529 0.819336 9.69531C0.769801 8.97719 1.00339 8.26821 1.4707 7.7207C1.89874 7.21953 2.54797 6.99433 3.24805 6.8457C3.96577 6.69336 4.92351 6.58749 6.12402 6.4541C6.87155 6.37104 7.07039 6.33941 7.23145 6.26367C7.35923 6.20353 7.47655 6.12256 7.57715 6.02344C7.70382 5.89849 7.80238 5.72238 8.13867 5.0498L8.18652 4.9541C8.76282 3.80152 9.22352 2.8775 9.65234 2.21875C10.0749 1.56969 10.566 1.01567 11.2734 0.821289Z" fill="#FAFAFA"/>
</svg>
