<svg width="24" height="24" viewBox="0 0 24 24" fill="none" xmlns="http://www.w3.org/2000/svg">
<path d="M11.2717 0.821102C11.7484 0.690167 12.252 0.690166 12.7287 0.821102C13.4361 1.01555 13.9272 1.56946 14.3498 2.21856C14.7786 2.87733 15.2394 3.80141 15.8156 4.95391L15.8635 5.04962C16.1998 5.72221 16.2982 5.89832 16.425 6.02325C16.5256 6.12234 16.6429 6.20338 16.7707 6.26348C16.9317 6.33917 17.1305 6.37084 17.8781 6.45391C19.0788 6.58733 20.0363 6.69313 20.7541 6.84552C21.4542 6.99416 22.1025 7.21928 22.5305 7.72052C22.9978 8.26804 23.2323 8.97696 23.1828 9.69512C23.1372 10.3526 22.7495 10.9197 22.2756 11.4559C21.7896 12.0055 21.0835 12.6604 20.1984 13.4822L20.0578 13.6131C19.4485 14.1789 19.2917 14.3395 19.2053 14.5106C19.1204 14.6786 19.0748 14.8643 19.0715 15.0525C19.0683 15.2441 19.1313 15.4598 19.4064 16.244C19.8182 17.4175 20.1454 18.3469 20.3283 19.0691C20.5045 19.7652 20.5998 20.4496 20.3576 21.0428C20.0324 21.8388 19.3533 22.4376 18.5226 22.66C17.9037 22.8255 17.2369 22.645 16.5685 22.3826C15.8749 22.1103 14.9937 21.6694 13.881 21.1131L13.2365 20.7908C12.5241 20.4346 12.33 20.3494 12.1408 20.3279C12.0476 20.3174 11.9528 20.3174 11.8596 20.3279C11.6704 20.3494 11.4763 20.4346 10.7639 20.7908L10.1193 21.1131C9.00668 21.6694 8.12542 22.1103 7.43182 22.3826C6.76344 22.645 6.09672 22.8256 5.47772 22.66C4.647 22.4376 3.96794 21.8389 3.64276 21.0428C3.45472 20.5822 3.47339 20.0772 3.5617 19.577C3.6511 19.0709 3.83139 18.4687 4.06756 17.7625C4.1989 17.3698 4.62407 17.1578 5.01678 17.2889C5.40951 17.4203 5.62172 17.8453 5.49041 18.2381C5.25591 18.9393 5.10674 19.4501 5.03827 19.8377C4.96898 20.2302 5.00128 20.4013 5.03143 20.4754C5.17925 20.8371 5.48797 21.1097 5.86541 21.2107C5.97918 21.2412 6.2433 21.2377 6.88397 20.9861C7.4997 20.7444 8.309 20.341 9.44842 19.7713L10.093 19.449C10.7064 19.1423 11.1758 18.895 11.6916 18.8367C11.8966 18.8136 12.1037 18.8136 12.3088 18.8367C12.6957 18.8804 13.0568 19.0295 13.4719 19.2313L14.5519 19.7713C15.6915 20.3411 16.5006 20.7444 17.1164 20.9861C17.757 21.2376 18.0211 21.2411 18.1349 21.2107C18.5123 21.1096 18.8211 20.837 18.9689 20.4754C19.0133 20.3662 19.0429 20.1038 18.8742 19.4373C18.7119 18.7961 18.4131 17.9429 17.9914 16.741C17.7551 16.0676 17.5626 15.5519 17.5715 15.0272C17.5786 14.6125 17.6794 14.204 17.8664 13.8338C18.1031 13.3655 18.5144 13 19.0373 12.5145L19.1779 12.3836C20.0872 11.5393 20.7275 10.9435 21.1525 10.4627C21.5888 9.96912 21.6774 9.72341 21.6867 9.59161C21.7091 9.26534 21.6021 8.94292 21.3898 8.69415C21.304 8.59377 21.0873 8.45019 20.4426 8.31329C19.8149 8.18002 18.9463 8.08215 17.7131 7.94512C17.0695 7.87362 16.5716 7.82759 16.132 7.62091C15.8508 7.48862 15.5937 7.30971 15.3723 7.09161C15.0264 6.75071 14.8111 6.29937 14.5217 5.72052L14.4738 5.62481C13.8805 4.43828 13.464 3.60694 13.093 3.03692C12.7158 2.45762 12.4838 2.30937 12.3312 2.26739C12.1145 2.20787 11.8858 2.20787 11.6691 2.26739C11.5166 2.30935 11.2845 2.45761 10.9074 3.03692C10.5364 3.60693 10.1198 4.43833 9.52655 5.62481L9.4787 5.72052C9.18927 6.29938 8.97394 6.75071 8.62811 7.09161C8.40673 7.3097 8.14954 7.48862 7.86834 7.62091C7.42877 7.82756 6.93082 7.87362 6.28729 7.94512C5.05402 8.08216 4.18551 8.18002 3.5578 8.31329C2.9132 8.45017 2.6964 8.59377 2.61053 8.69415C2.39826 8.94292 2.29123 9.26536 2.31366 9.59161C2.32293 9.72341 2.41152 9.96907 2.84784 10.4627C3.27288 10.9435 3.91314 11.5392 4.82245 12.3836L4.96307 12.5145C5.37439 12.8964 5.72195 13.2996 5.90643 13.5242C6.16901 13.8443 6.12276 14.317 5.80291 14.5799C5.48294 14.8425 5.01013 14.7961 4.74725 14.4764C4.5837 14.2772 4.28439 13.9305 3.94256 13.6131L3.80194 13.4822C2.91687 12.6604 2.21073 12.0055 1.72479 11.4559C1.25084 10.9197 0.863154 10.3526 0.817563 9.69512C0.768037 8.97713 1.00179 8.26798 1.46893 7.72052C1.89694 7.21923 2.54616 6.99417 3.24627 6.84552C3.96402 6.69313 4.92157 6.58732 6.12225 6.45391C6.86976 6.37085 7.06862 6.33917 7.22967 6.26348C7.35747 6.20338 7.47475 6.12234 7.57538 6.02325C7.70212 5.89831 7.80059 5.72223 8.1369 5.04962L8.18475 4.95391C8.76098 3.80145 9.22179 2.87732 9.65057 2.21856C10.0731 1.56947 10.5643 1.01554 11.2717 0.821102Z" fill="#FFCE35"/>
</svg>
