<svg width="24" height="24" viewBox="0 0 24 24" fill="none" xmlns="http://www.w3.org/2000/svg">
<path d="M22 1.25C22.4142 1.25 22.75 1.58579 22.75 2C22.75 2.41421 22.4142 2.75 22 2.75H3.75V9.59961C3.75 10.732 3.75034 11.5367 3.80176 12.166C3.85247 12.7866 3.94936 13.1711 4.10449 13.4756C4.41605 14.087 4.91304 14.5839 5.52441 14.8955C5.82889 15.0506 6.21336 15.1475 6.83398 15.1982C7.46335 15.2497 8.26798 15.25 9.40039 15.25H14.5996C15.732 15.25 16.5367 15.2497 17.166 15.1982C17.7866 15.1475 18.1711 15.0506 18.4756 14.8955C19.087 14.5839 19.5839 14.087 19.8955 13.4756C20.0506 13.1711 20.1475 12.7866 20.1982 12.166C20.2497 11.5367 20.25 10.732 20.25 9.59961V6C20.25 5.58579 20.5858 5.25 21 5.25C21.4142 5.25 21.75 5.58579 21.75 6V9.59961C21.75 10.7072 21.7509 11.5835 21.6934 12.2881C21.6351 13.0014 21.5132 13.6051 21.2324 14.1562C20.777 15.05 20.05 15.777 19.1562 16.2324C18.6051 16.5132 18.0014 16.6351 17.2881 16.6934C16.5835 16.7509 15.7072 16.75 14.5996 16.75H12.75V18.5742L17.3857 21.3564C17.7408 21.5695 17.8564 22.0306 17.6436 22.3857C17.4305 22.7408 16.9694 22.8564 16.6143 22.6436L12.75 20.3242V22C12.75 22.4142 12.4142 22.75 12 22.75C11.5858 22.75 11.25 22.4142 11.25 22V20.3242L7.38574 22.6436C7.0306 22.8564 6.5695 22.7408 6.35645 22.3857C6.14357 22.0306 6.25917 21.5695 6.61426 21.3564L11.25 18.5742V16.75H9.40039C8.29277 16.75 7.41651 16.7509 6.71191 16.6934C5.99862 16.6351 5.39487 16.5132 4.84375 16.2324C3.94998 15.777 3.22298 15.05 2.76758 14.1562C2.48682 13.6051 2.36492 13.0014 2.30664 12.2881C2.24909 11.5835 2.25 10.7072 2.25 9.59961V2.75H2C1.58579 2.75 1.25 2.41421 1.25 2C1.25 1.58579 1.58579 1.25 2 1.25H22ZM8 8.25C8.41421 8.25 8.75 8.58579 8.75 9V11C8.75 11.4142 8.41421 11.75 8 11.75C7.58579 11.75 7.25 11.4142 7.25 11V9C7.25 8.58579 7.58579 8.25 8 8.25ZM12 6.25C12.4142 6.25 12.75 6.58579 12.75 7V11C12.75 11.4142 12.4142 11.75 12 11.75C11.5858 11.75 11.25 11.4142 11.25 11V7C11.25 6.58579 11.5858 6.25 12 6.25ZM16 7.25C16.4142 7.25 16.75 7.58579 16.75 8V11C16.75 11.4142 16.4142 11.75 16 11.75C15.5858 11.75 15.25 11.4142 15.25 11V8C15.25 7.58579 15.5858 7.25 16 7.25Z" fill="#FAFAFA"/>
</svg>
