<svg width="24" height="24" viewBox="0 0 24 24" fill="none" xmlns="http://www.w3.org/2000/svg">
<path d="M12 19.25C12.4142 19.25 12.75 19.5858 12.75 20V22C12.75 22.4142 12.4142 22.75 12 22.75C11.5858 22.75 11.25 22.4142 11.25 22V20C11.25 19.5858 11.5858 19.25 12 19.25ZM6.4707 16.4697C6.76363 16.1772 7.23849 16.177 7.53125 16.4697C7.82363 16.7625 7.82362 17.2375 7.53125 17.5303L5.16699 19.8936C4.87413 20.1864 4.39935 20.1864 4.10645 19.8936C3.81375 19.6006 3.81362 19.1258 4.10645 18.833L6.4707 16.4697ZM16.4707 16.4697C16.7636 16.1772 17.2385 16.177 17.5312 16.4697L19.8945 18.833C20.1872 19.1258 20.187 19.6007 19.8945 19.8936C19.6017 20.1864 19.1269 20.1864 18.834 19.8936L16.4707 17.5303C16.1778 17.2374 16.1778 16.7626 16.4707 16.4697ZM12 15.25C12.4142 15.25 12.75 15.5858 12.75 16V17C12.75 17.4142 12.4142 17.75 12 17.75C11.5858 17.75 11.25 17.4142 11.25 17V16C11.25 15.5858 11.5858 15.25 12 15.25ZM4 11.25C4.41421 11.25 4.75 11.5858 4.75 12C4.75 12.4142 4.41421 12.75 4 12.75H2C1.58579 12.75 1.25 12.4142 1.25 12C1.25 11.5858 1.58579 11.25 2 11.25H4ZM8 11.25C8.41421 11.25 8.75 11.5858 8.75 12C8.75 12.4142 8.41421 12.75 8 12.75H7C6.58579 12.75 6.25 12.4142 6.25 12C6.25 11.5858 6.58579 11.25 7 11.25H8ZM17 11.25C17.4142 11.25 17.75 11.5858 17.75 12C17.75 12.4142 17.4142 12.75 17 12.75H16C15.5858 12.75 15.25 12.4142 15.25 12C15.25 11.5858 15.5858 11.25 16 11.25H17ZM22 11.25C22.4142 11.25 22.75 11.5858 22.75 12C22.75 12.4142 22.4142 12.75 22 12.75H20C19.5858 12.75 19.25 12.4142 19.25 12C19.25 11.5858 19.5858 11.25 20 11.25H22ZM12 6.25C12.4142 6.25 12.75 6.58579 12.75 7V8C12.75 8.41421 12.4142 8.75 12 8.75C11.5858 8.75 11.25 8.41421 11.25 8V7C11.25 6.58579 11.5858 6.25 12 6.25ZM4.10645 4.10547C4.39937 3.81297 4.87423 3.81271 5.16699 4.10547L7.53125 6.46973C7.82381 6.7625 7.82368 7.23741 7.53125 7.53027C7.23842 7.8231 6.76361 7.82297 6.4707 7.53027L4.10645 5.16602C3.81355 4.87312 3.81355 4.39836 4.10645 4.10547ZM18.834 4.10547C19.1268 3.81304 19.6018 3.8129 19.8945 4.10547C20.1872 4.39824 20.187 4.87312 19.8945 5.16602L17.5312 7.53027C17.2384 7.82314 16.7626 7.82307 16.4697 7.53027C16.1771 7.23746 16.1772 6.76258 16.4697 6.46973L18.834 4.10547ZM12 1.25C12.4142 1.25 12.75 1.58579 12.75 2V4C12.75 4.41421 12.4142 4.75 12 4.75C11.5858 4.75 11.25 4.41421 11.25 4V2C11.25 1.58579 11.5858 1.25 12 1.25Z" fill="#FAFAFA"/>
</svg>
