<svg width="24" height="24" viewBox="0 0 24 24" fill="none" xmlns="http://www.w3.org/2000/svg">
<path d="M12 1.25C17.9371 1.25 22.75 6.06294 22.75 12C22.75 17.9371 17.9371 22.75 12 22.75C9.58042 22.75 7.34571 21.9496 5.54883 20.5996C5.21773 20.3509 5.15078 19.881 5.39941 19.5498C5.64817 19.2187 6.11807 19.1518 6.44922 19.4004C7.99528 20.562 9.91636 21.25 12 21.25C17.1086 21.25 21.25 17.1086 21.25 12C21.25 6.89137 17.1086 2.75 12 2.75C6.89137 2.75 2.75 6.89137 2.75 12C2.75 13.3169 3.02493 14.5682 3.51953 15.7002C3.68498 16.0796 3.51202 16.5216 3.13281 16.6875C2.75325 16.8533 2.31037 16.6794 2.14453 16.2998C1.56888 14.9821 1.25 13.5273 1.25 12C1.25 6.06294 6.06294 1.25 12 1.25ZM15.9697 8.96973C16.2626 8.67683 16.7374 8.67683 17.0303 8.96973C17.3232 9.26262 17.3232 9.73738 17.0303 10.0303L11.5303 15.5303C11.3896 15.6709 11.1989 15.75 11 15.75C10.8011 15.75 10.6104 15.6709 10.4697 15.5303L7.96973 13.0303C7.67683 12.7374 7.67683 12.2626 7.96973 11.9697C8.26262 11.6768 8.73738 11.6768 9.03027 11.9697L11 13.9395L15.9697 8.96973Z" fill="#FAFAFA"/>
</svg>
