<svg width="22" height="20" viewBox="0 0 22 20" fill="none" xmlns="http://www.w3.org/2000/svg">
<path d="M8.75002 2.43187e-05C9.16422 2.43187e-05 9.5 0.33583 9.50002 0.750024C9.50002 1.16424 9.16424 1.50002 8.75002 1.50002H4.34963C3.76446 1.50003 3.55856 1.50207 3.39846 1.52737C2.43573 1.67987 1.67986 2.43573 1.52737 3.39846C1.50207 3.55856 1.50003 3.76446 1.50002 4.34963V6.04592C3.20086 6.32032 4.49986 7.79504 4.50002 9.57327V9.92678C4.49988 11.705 3.2008 13.1787 1.50002 13.4531V15.1504C1.50003 15.7356 1.50208 15.9415 1.52737 16.1016C1.67985 17.0643 2.43573 17.8202 3.39846 17.9727C3.55856 17.998 3.76446 18 4.34963 18H17.1504C17.7356 18 17.9415 17.998 18.1016 17.9727C19.0643 17.8202 19.8202 17.0643 19.9727 16.1016C19.998 15.9415 20 15.7356 20 15.1504V13.4531C18.2993 13.1787 17.0002 11.705 17 9.92678V9.57327C17.0002 7.79506 18.2992 6.32033 20 6.04592V4.34963C20 3.76446 19.998 3.55856 19.9727 3.39846C19.8202 2.43573 19.0643 1.67985 18.1016 1.52737C17.9415 1.50208 17.7356 1.50003 17.1504 1.50002H12.75C12.3358 1.5 12 1.16422 12 0.750024C12 0.335845 12.3358 4.80322e-05 12.75 2.43187e-05H17.1504C17.6789 2.31747e-05 18.0308 -0.00255356 18.3369 0.0459228C19.9413 0.300137 21.1999 1.55873 21.4541 3.16311C21.5026 3.46922 21.5 3.82113 21.5 4.34963V6.57327C21.5 7.08494 21.0849 7.50002 20.5733 7.50002C19.4283 7.5002 18.5002 8.42835 18.5 9.57327V9.92678C18.5002 11.0717 19.4283 11.9998 20.5733 12C21.0849 12 21.5 12.4151 21.5 12.9268V15.1504C21.5 15.6789 21.5026 16.0308 21.4541 16.3369C21.1999 17.9413 19.9413 19.1999 18.3369 19.4541C18.0308 19.5026 17.6789 19.5 17.1504 19.5H4.34963C3.82113 19.5 3.46922 19.5026 3.16311 19.4541C1.55873 19.1999 0.300137 17.9413 0.0459228 16.3369C-0.00255374 16.0308 2.31747e-05 15.6789 2.43187e-05 15.1504V12.9268C4.7324e-05 12.4151 0.41514 12 0.926782 12L1.1387 11.9893C2.1841 11.883 2.99988 11.0002 3.00002 9.92678V9.57327C2.99985 8.42834 2.07172 7.50018 0.926782 7.50002C0.415127 7.5 2.43187e-05 7.08493 2.43187e-05 6.57327V4.34963C2.30367e-05 3.82113 -0.00256036 3.46922 0.0459228 3.16311C0.30015 1.55873 1.55873 0.300151 3.16311 0.0459228C3.46922 -0.00256032 3.82113 2.30323e-05 4.34963 2.43187e-05H8.75002ZM7.75002 13C8.16422 13 8.5 13.3358 8.50002 13.75V15.75C8.50002 16.1642 8.16424 16.5 7.75002 16.5C7.33583 16.5 7.00002 16.1642 7.00002 15.75V13.75C7.00005 13.3358 7.33584 13 7.75002 13ZM7.75002 8.00002C8.16422 8.00002 8.5 8.33583 8.50002 8.75002V10.75C8.50002 11.1642 8.16424 11.5 7.75002 11.5C7.33583 11.5 7.00002 11.1642 7.00002 10.75V8.75002C7.00005 8.33584 7.33584 8.00005 7.75002 8.00002ZM7.75002 3.00002C8.16422 3.00002 8.5 3.33583 8.50002 3.75002V5.75002C8.50002 6.16424 8.16424 6.50002 7.75002 6.50002C7.33583 6.5 7.00002 6.16422 7.00002 5.75002V3.75002C7.00005 3.33584 7.33584 3.00005 7.75002 3.00002Z" fill="#242552"/>
</svg>
