<svg width="24" height="24" viewBox="0 0 24 24" fill="none" xmlns="http://www.w3.org/2000/svg">
<path fill-rule="evenodd" clip-rule="evenodd" d="M21.9999 11.2499C22.4142 11.2499 22.7499 11.5857 22.7499 11.9999V17.9999C22.7499 18.4141 22.4141 18.7499 21.9999 18.7499H15.9999C15.5858 18.7499 15.25 18.4141 15.2499 17.9999C15.2499 17.5857 15.5857 17.2499 15.9999 17.2499H20.1894L16.9697 14.0302C16.6768 13.7373 16.6768 13.2626 16.9697 12.9697C17.2626 12.6768 17.7373 12.6768 18.0302 12.9697L21.2499 16.1894V11.9999C21.2499 11.5857 21.5857 11.2499 21.9999 11.2499ZM1.46967 5.46967C1.76256 5.17678 2.23732 5.17678 2.53022 5.46967L7.53022 10.4697C8.11826 11.0577 8.28925 11.2146 8.44526 11.2919C8.79474 11.4649 9.20515 11.465 9.55463 11.2919C9.71064 11.2146 9.8816 11.0577 10.4697 10.4697L10.9697 9.96967C11.0432 9.89613 11.0985 9.84001 11.1503 9.79291C12.1991 8.83986 13.8008 8.83986 14.8496 9.79291C14.9014 9.84001 14.9567 9.89613 15.0302 9.96967L15.5302 10.4697C15.8231 10.7626 15.8231 11.2373 15.5302 11.5302C15.2373 11.8231 14.7626 11.8231 14.4697 11.5302L13.9697 11.0302C13.8839 10.9444 13.8595 10.9203 13.8408 10.9033C13.364 10.4699 12.6359 10.4699 12.1591 10.9033C12.1404 10.9203 12.116 10.9445 12.0302 11.0302L11.5302 11.5302C11.0278 12.0327 10.6528 12.4215 10.2206 12.6357C9.45145 13.0167 8.54845 13.0167 7.77924 12.6357C7.34706 12.4215 6.97209 12.0326 6.46967 11.5302L1.46967 6.53022C1.17678 6.23732 1.17678 5.76256 1.46967 5.46967Z" fill="#E2074C"/>
</svg>
