<svg width="24" height="24" viewBox="0 0 24 24" fill="none" xmlns="http://www.w3.org/2000/svg">
<path fill-rule="evenodd" clip-rule="evenodd" d="M7.77922 11.3643C8.54844 10.9832 9.45142 10.9832 10.2206 11.3643C10.6528 11.5784 11.0278 11.9673 11.5302 12.4697C12.1183 13.0578 12.2892 13.2147 12.4452 13.292C12.7947 13.465 13.2051 13.465 13.5546 13.292C13.7106 13.2147 13.8816 13.0578 14.4697 12.4697L14.9697 11.9697C15.2625 11.6768 15.7373 11.6768 16.0302 11.9697C16.3231 12.2626 16.3231 12.7374 16.0302 13.0303L15.5302 13.5303C15.0278 14.0327 14.6528 14.4216 14.2206 14.6357C13.4514 15.0168 12.5484 15.0168 11.7792 14.6357C11.347 14.4216 10.9721 14.0327 10.4697 13.5303C9.88157 12.9422 9.71063 12.7853 9.55462 12.708C9.20512 12.535 8.79474 12.535 8.44524 12.708C8.28923 12.7853 8.11827 12.9422 7.5302 13.5303L2.5302 18.5303C2.23732 18.8231 1.76254 18.8231 1.46965 18.5303C1.17677 18.2374 1.17679 17.7626 1.46965 17.4697L6.46965 12.4697C6.97209 11.9673 7.34704 11.5784 7.77922 11.3643ZM21.9999 5.25C22.4141 5.25 22.7499 5.58579 22.7499 6V12C22.7499 12.4142 22.4141 12.75 21.9999 12.75C21.5857 12.75 21.2499 12.4142 21.2499 12V7.81055L18.5302 10.5303C18.2373 10.8232 17.7625 10.8232 17.4697 10.5303C17.1768 10.2374 17.1768 9.76262 17.4697 9.46973L20.1894 6.75H15.9999C15.5857 6.75 15.2499 6.41421 15.2499 6C15.2499 5.58579 15.5857 5.25 15.9999 5.25H21.9999Z" fill="#49A3A3"/>
</svg>
