<svg width="18" height="22" viewBox="0 0 18 22" fill="none" xmlns="http://www.w3.org/2000/svg">
<path d="M11.9502 12C15.0152 12.0001 17.4999 14.4848 17.5 17.5498C17.5 19.7313 15.7313 21.5 13.5498 21.5H11.25C10.8358 21.5 10.5 21.1642 10.5 20.75C10.5 20.3358 10.8358 20 11.25 20H13.5498C14.9029 20 16 18.9029 16 17.5498C15.9999 15.3132 14.1868 13.5001 11.9502 13.5H5.5498C3.31321 13.5001 1.50011 15.3132 1.5 17.5498C1.5 18.9029 2.5971 20 3.9502 20H6.25C6.66421 20 7 20.3358 7 20.75C7 21.1642 6.66421 21.5 6.25 21.5H3.9502C1.76867 21.5 0 19.7313 0 17.5498C0.000105655 14.4848 2.48478 12.0001 5.5498 12H11.9502ZM8.75 0C11.3734 0 13.5 2.12665 13.5 4.75C13.5 7.37335 11.3734 9.5 8.75 9.5C6.12665 9.5 4 7.37335 4 4.75C4 2.12665 6.12665 0 8.75 0ZM8.75 1.5C6.95507 1.5 5.5 2.95507 5.5 4.75C5.5 6.54493 6.95507 8 8.75 8C10.5449 8 12 6.54493 12 4.75C12 2.95507 10.5449 1.5 8.75 1.5Z" fill="#22272F"/>
</svg>
