<svg width="402" height="290" viewBox="0 0 402 290" fill="none" xmlns="http://www.w3.org/2000/svg">
<path d="M147.402 232.717C146.041 234.053 144.424 235.105 142.648 235.809C140.939 236.463 138.983 236.791 136.779 236.791C136.365 236.791 135.951 236.77 135.551 236.749C133.301 236.611 131.357 236.105 129.733 235.218C127.83 234.183 126.343 232.529 125.524 230.532L135.555 228.602L147.832 226.239L156.854 224.495C156.854 220.117 155.871 216.321 153.904 213.108C153.428 212.332 152.9 211.589 152.326 210.882C150.603 208.745 148.443 206.997 145.989 205.754C145.035 205.261 144.045 204.841 143.028 204.497C141.821 204.085 140.582 203.771 139.324 203.558C137.882 203.323 136.423 203.206 134.962 203.21C130.664 203.21 126.796 204.135 123.36 205.986C121.509 206.971 119.819 208.23 118.35 209.721V203.832H106.073V226.141C106.073 229.629 105.468 232.2 104.258 233.856C103.047 235.511 101.158 236.331 98.5889 236.315C95.9685 236.315 94.0263 235.48 92.7623 233.812C91.51 232.145 90.8733 229.582 90.8733 226.139V203.834H78.5959V226.143C78.5959 229.583 77.9697 232.147 76.7069 233.816C75.444 235.484 73.5025 236.318 70.8803 236.318C68.3079 236.318 66.4183 235.498 65.2116 233.859C64.0049 232.22 63.4039 229.648 63.4086 226.144V219.57C63.4086 213.366 61.7278 208.564 58.3661 205.166C57.8911 204.689 57.3843 204.245 56.8489 203.836C53.7392 201.452 49.6578 200.205 44.5469 200.09V210.378C46.6516 210.553 48.2512 211.36 49.3123 212.795C50.5225 214.452 51.1171 217.017 51.1171 220.51V227.084C51.1171 233.289 52.7973 238.09 56.1579 241.489C56.6324 241.97 57.1437 242.414 57.6873 242.817C60.9204 245.325 65.2637 246.579 70.7172 246.579C73.8743 246.579 76.6057 246.107 78.9116 245.165C81.2329 244.214 83.2455 242.645 84.7276 240.631C86.2248 242.652 88.2562 244.221 90.5962 245.165C92.9325 246.103 95.6177 246.579 98.6748 246.579C104.968 246.579 109.82 244.883 113.232 241.492C113.888 240.845 114.482 240.139 115.006 239.382C115.227 239.076 115.432 238.758 115.621 238.432C115.823 238.104 116.014 237.767 116.184 237.418C117.352 239.04 118.762 240.474 120.366 241.672C121.441 242.477 122.586 243.185 123.788 243.789C127.459 245.649 131.683 246.579 136.46 246.579C144.123 246.579 149.95 244.312 153.941 239.778L147.827 233.181L147.402 232.717ZM127.408 215.422C129.011 213.775 131.01 212.815 133.404 212.541C133.922 212.476 134.443 212.444 134.965 212.445C137.491 212.445 139.634 213.099 141.429 214.408C143.192 215.681 144.445 217.535 144.963 219.64L135.548 221.468L124.338 223.642C124.445 220.139 125.475 217.404 127.406 215.422H127.408Z" fill="white"/>
<path d="M156.883 200.11C156.736 200.11 156.587 200.11 156.439 200.11V200.098C156.587 200.098 156.736 200.098 156.883 200.11Z" fill="white"/>
<path d="M159.119 200.268C158.4 200.19 157.655 200.141 156.885 200.109C157.655 200.129 158.4 200.182 159.119 200.268Z" fill="white"/>
<path d="M161.22 200.587C160.548 200.452 159.847 200.348 159.115 200.268C159.822 200.338 160.524 200.444 161.22 200.587Z" fill="white"/>
<path d="M163.18 201.066C162.552 200.883 161.899 200.724 161.221 200.588C161.882 200.713 162.536 200.872 163.18 201.066Z" fill="white"/>
<path d="M162.941 218.353C162.953 218.475 162.96 218.604 162.965 218.733C162.941 218.426 162.916 218.133 162.885 217.844C162.897 217.924 162.909 218.004 162.916 218.09C162.923 218.175 162.927 218.268 162.941 218.353Z" fill="white"/>
<path d="M163.005 219.671C163.005 219.346 162.98 219.04 162.963 218.734C162.97 218.775 162.974 218.816 162.975 218.856C162.993 219.12 163.005 219.388 163.005 219.671Z" fill="white"/>
<path d="M163.024 220.521V227.46C163.024 227.331 163.024 227.209 163.024 227.08V220.509C163.024 220.221 163.024 219.945 163.01 219.67C163.019 219.945 163.024 220.233 163.024 220.521Z" fill="white"/>
<path d="M165.002 201.701C164.407 201.456 163.798 201.244 163.18 201.064C163.799 201.241 164.407 201.454 165.002 201.701Z" fill="white"/>
<path d="M170.268 205.18C170.06 204.965 169.844 204.763 169.621 204.561C169.844 204.751 170.06 204.96 170.263 205.167C170.268 205.173 170.268 205.173 170.268 205.18Z" fill="white"/>
<path d="M230.254 203.834V227.083C230.254 233.287 228.545 238.089 225.128 241.487C221.71 244.885 216.857 246.581 210.57 246.574C207.524 246.574 204.835 246.102 202.502 245.159C200.162 244.216 198.131 242.647 196.633 240.626C195.151 242.64 193.139 244.209 190.817 245.159C188.503 246.098 185.772 246.569 182.623 246.574C177.179 246.574 172.834 245.325 169.59 242.826L169.579 242.816C169.041 242.41 168.533 241.966 168.06 241.487C164.77 238.163 163.093 233.488 163.03 227.461V220.519C163.03 220.233 163.019 219.949 163.009 219.675C162.998 219.401 162.998 219.168 162.977 218.936V218.852C162.98 218.813 162.976 218.773 162.967 218.735C162.958 218.672 162.954 218.609 162.956 218.545C162.959 218.481 162.955 218.418 162.944 218.355C162.933 218.271 162.923 218.181 162.912 218.092C162.911 218.01 162.904 217.929 162.891 217.849C162.87 217.675 162.849 217.521 162.828 217.363C162.817 217.231 162.796 217.101 162.765 216.972C162.744 216.798 162.711 216.623 162.679 216.449C162.383 214.949 161.893 213.736 161.215 212.818V212.797C161.141 212.701 161.065 212.607 160.981 212.513C160.82 212.321 160.644 212.141 160.455 211.974C160.299 211.826 160.133 211.688 159.957 211.563C159.779 211.437 159.595 211.32 159.405 211.214C159.309 211.159 159.21 211.11 159.108 211.066C158.801 210.915 158.481 210.792 158.152 210.698C157.888 210.614 157.618 210.547 157.345 210.497C157.07 210.443 156.774 210.412 156.486 210.38C156.198 210.349 155.87 210.349 155.542 210.349C155.214 210.349 154.916 210.36 154.618 210.38C154.406 210.107 154.194 209.831 153.981 209.568C152.068 207.201 149.674 205.263 146.955 203.879C146.28 203.529 145.585 203.215 144.875 202.941C145.696 202.36 146.583 201.879 147.518 201.506C149.822 200.566 152.549 200.094 155.7 200.092C155.956 200.092 156.2 200.092 156.444 200.102C156.582 200.102 156.73 200.102 156.879 200.113C157.654 200.144 158.396 200.196 159.119 200.271C159.841 200.346 160.552 200.461 161.223 200.587C161.895 200.713 162.551 200.883 163.177 201.074C163.797 201.248 164.407 201.459 165.001 201.707C165.289 201.822 165.575 201.949 165.852 202.076C165.862 202.076 165.873 202.087 165.884 202.087C166.148 202.223 166.41 202.35 166.669 202.498C166.669 202.498 166.69 202.498 166.69 202.509C166.866 202.603 167.029 202.683 167.199 202.793C167.422 202.92 167.634 203.056 167.846 203.205C167.979 203.281 168.106 203.366 168.229 203.457C168.378 203.564 168.537 203.679 168.685 203.796C168.752 203.841 168.815 203.89 168.876 203.944L169.004 204.038C169.216 204.212 169.418 204.387 169.619 204.561C169.821 204.736 170.065 204.962 170.267 205.184C170.468 205.405 170.681 205.606 170.882 205.838C171.273 206.277 171.638 206.739 171.975 207.221C173.334 209.182 174.29 211.495 174.809 214.154C174.937 214.777 175.032 215.431 175.107 216.095C175.139 216.369 175.171 216.655 175.192 216.939C175.265 217.783 175.297 218.66 175.297 219.567V226.141C175.297 226.363 175.297 226.574 175.307 226.785C175.383 229.962 175.977 232.304 177.112 233.856C178.322 235.492 180.201 236.315 182.781 236.315C185.401 236.315 187.343 235.481 188.607 233.812C189.86 232.145 190.496 229.582 190.496 226.139V203.834H202.774V226.143C202.774 229.584 203.4 232.147 204.663 233.816C205.926 235.485 207.867 236.318 210.489 236.318C213.062 236.318 214.951 235.499 216.158 233.859C217.365 232.22 217.966 229.649 217.961 226.145V203.834H230.254Z" fill="white"/>
<path d="M175.189 216.934C175.263 217.778 175.295 218.655 175.295 219.562V226.136C175.295 226.357 175.295 226.568 175.305 226.779V219.572C175.305 218.662 175.274 217.785 175.189 216.934Z" fill="white"/>
<path d="M250.526 186.222C249.105 184.977 247.269 184.344 245.019 184.344C242.768 184.344 240.921 184.998 239.499 186.307C238.829 186.927 238.296 187.678 237.93 188.512C237.565 189.346 237.377 190.246 237.377 191.156C237.377 192.066 237.565 192.966 237.93 193.8C238.296 194.634 238.829 195.385 239.499 196.005C240.921 197.313 242.761 197.967 245.019 197.968C247.276 197.97 249.112 197.305 250.526 195.973C251.938 194.643 252.65 192.955 252.65 190.916C252.665 190.027 252.483 189.144 252.116 188.333C251.749 187.521 251.206 186.801 250.526 186.222ZM238.873 203.835V245.941H251.15V203.835H238.873Z" fill="white"/>
<path d="M268.157 186.222C266.745 184.977 264.908 184.344 262.648 184.344C260.387 184.344 258.55 184.998 257.14 186.307C256.467 186.925 255.93 187.675 255.563 188.51C255.195 189.344 255.006 190.245 255.006 191.156C255.006 192.067 255.195 192.968 255.563 193.802C255.93 194.637 256.467 195.387 257.14 196.005C258.55 197.313 260.386 197.967 262.648 197.968C264.909 197.97 266.745 197.305 268.157 195.973C269.579 194.643 270.279 192.955 270.279 190.916C270.297 190.026 270.116 189.144 269.749 188.332C269.382 187.52 268.838 186.799 268.157 186.222ZM256.502 203.835V245.941H268.793V203.835H256.502Z" fill="white"/>
<path d="M312.597 207.907C309.37 204.768 305.131 203.203 299.881 203.211C296.994 203.211 294.34 203.685 291.93 204.657C289.623 205.549 287.55 206.953 285.871 208.762V203.834H274.139V245.94H286.416V225.119C286.416 221.363 287.332 218.535 289.165 216.635C290.997 214.735 293.466 213.782 296.573 213.775C299.353 213.775 301.475 214.598 302.942 216.244C304.417 217.88 305.148 220.381 305.148 223.715V245.94H317.426V221.837C317.436 215.685 315.822 211.03 312.597 207.907Z" fill="white"/>
<path d="M354.279 225.984C352.724 224.303 350.739 223.074 348.536 222.429C346.328 221.775 343.494 221.16 340.035 220.582C336.936 220.118 334.686 219.621 333.263 219.094C331.841 218.568 331.141 217.659 331.141 216.36C331.141 215.211 331.788 214.268 333.104 213.544C334.419 212.82 336.383 212.445 339.005 212.445C343.28 212.411 347.489 213.493 351.211 215.584L355.308 206.889C353.365 205.751 350.923 204.842 347.942 204.188C345.004 203.545 342.005 203.219 338.997 203.217C334.963 203.217 331.46 203.791 328.489 204.938C325.518 206.085 323.26 207.689 321.717 209.749C320.167 211.807 319.404 214.172 319.404 216.831C319.404 220.017 320.221 222.465 321.877 224.185C323.48 225.88 325.504 227.125 327.745 227.794C329.996 228.469 332.861 229.071 336.322 229.589C339.262 229.959 341.441 230.401 342.859 230.918C344.271 231.441 344.983 232.301 344.983 233.504C344.983 236.057 342.382 237.34 337.192 237.34C334.526 237.327 331.876 236.943 329.317 236.2C326.642 235.439 324.36 234.47 322.476 233.267L318.383 242.045C320.377 243.342 323.052 244.429 326.418 245.283C329.783 246.151 333.247 246.588 336.724 246.583C340.873 246.583 344.441 246.023 347.475 244.894C350.509 243.766 352.783 242.192 354.363 240.165C355.921 238.173 356.752 235.713 356.72 233.19C356.72 230.11 355.903 227.706 354.279 225.984Z" fill="white"/>
<path d="M229.823 71.742C237.882 71.742 244.416 65.2463 244.416 57.2333C244.416 49.2204 237.882 42.7246 229.823 42.7246C221.764 42.7246 215.23 49.2204 215.23 57.2333C215.23 65.2463 221.764 71.742 229.823 71.742Z" fill="#49A3A3"/>
<path d="M170.281 73.0883C178.715 73.0883 185.551 66.2911 185.551 57.9064C185.551 49.5218 178.715 42.7246 170.281 42.7246C161.848 42.7246 155.012 49.5218 155.012 57.9064C155.012 66.2911 161.848 73.0883 170.281 73.0883Z" fill="#FFCE35"/>
<path d="M264.282 142.901L241.846 165.208C240.446 166.599 238.549 167.38 236.57 167.38C234.591 167.38 232.693 166.599 231.293 165.208L205.549 139.61C204.051 138.12 203.209 136.1 203.209 133.993V90.1201C203.209 83.0453 211.814 79.5001 216.846 84.5049L264.282 131.66C265.025 132.398 265.614 133.274 266.016 134.239C266.418 135.203 266.625 136.237 266.625 137.28C266.625 138.324 266.418 139.358 266.016 140.322C265.614 141.287 265.025 142.163 264.282 142.901Z" fill="#E0074C"/>
<path d="M248.762 111.383C259.384 121.943 277.526 117.106 281.403 102.676C284.199 92.2709 286.998 81.866 289.797 71.4611C292.647 60.8621 279.547 53.3479 271.745 61.1062L248.769 83.9505C246.957 85.7512 245.519 87.8892 244.538 90.2423C243.557 92.5955 243.051 95.1178 243.051 97.6652C243.05 100.213 243.554 102.735 244.534 105.089C245.514 107.442 246.951 109.581 248.762 111.383Z" fill="#FFCE35"/>
<path d="M135.939 142.901L158.381 165.208C159.78 166.599 161.678 167.381 163.657 167.381C165.636 167.381 167.533 166.599 168.933 165.208L194.678 139.61C196.176 138.12 197.018 136.1 197.018 133.993V90.1201C197.018 83.0453 188.413 79.5001 183.38 84.5049L135.939 131.66C135.196 132.398 134.607 133.274 134.205 134.238C133.803 135.203 133.596 136.236 133.596 137.28C133.596 138.324 133.803 139.358 134.205 140.323C134.607 141.287 135.196 142.163 135.939 142.901Z" fill="#49A3A3"/>
<path d="M151.457 111.383C140.835 121.944 122.693 117.107 118.818 102.676C116.019 92.2715 113.221 81.8666 110.424 71.4617C107.574 60.8609 120.671 53.3432 128.476 61.1016L151.452 83.9458C153.265 85.7467 154.703 87.8851 155.685 90.2389C156.666 92.5926 157.171 95.1155 157.172 97.6635C157.172 100.211 156.668 102.735 155.687 105.089C154.707 107.443 153.269 109.582 151.457 111.383Z" fill="#E2E2E2"/>
</svg>
