<svg width="216" height="75" viewBox="0 0 216 75" fill="none" xmlns="http://www.w3.org/2000/svg">
<path d="M120 44.1125C119.484 44.62 118.871 45.0195 118.197 45.2873C117.483 45.547 116.728 45.6733 115.969 45.6599C115.812 45.6599 115.655 45.6523 115.501 45.6438C114.644 45.5916 113.911 45.3992 113.295 45.0626C112.572 44.6695 112.007 44.0407 111.696 43.2819L115.505 42.548L120.165 41.6501L123.594 40.9864C123.594 39.3227 123.22 37.8805 122.474 36.6599C122.294 36.3649 122.095 36.0823 121.878 35.8141C121.224 35.0025 120.405 34.3383 119.474 33.8657C119.112 33.6795 118.736 33.521 118.35 33.3916C117.892 33.235 117.422 33.1155 116.944 33.0341C116.397 32.9449 115.843 32.9008 115.289 32.9023C113.657 32.9023 112.19 33.2538 110.887 33.9567C110.183 34.331 109.54 34.8107 108.982 35.3789V33.1413H104.322V41.6179C104.322 42.9453 104.092 43.9222 103.633 44.5486C103.173 45.1751 102.456 45.4867 101.482 45.4835C100.488 45.4835 99.7512 45.1675 99.2718 44.5354C98.7956 43.9011 98.5547 42.9235 98.5547 41.6198V33.1431H93.8908V41.6198C93.8908 42.9276 93.6518 43.8995 93.1737 44.5354C92.6956 45.1713 91.9585 45.4873 90.9623 45.4835C89.9877 45.4835 89.2708 45.1719 88.8118 44.5486C88.3528 43.9254 88.1245 42.9485 88.127 41.6179V39.1157C88.127 36.7585 87.4896 34.9342 86.2147 33.6428C86.0353 33.4623 85.8445 33.2935 85.6432 33.1375C84.4632 32.231 82.9128 31.7579 80.9766 31.7152V35.6245C81.7785 35.689 82.3823 35.9971 82.7861 36.5433C83.2451 37.1719 83.4708 38.1466 83.4708 39.4741V41.9715C83.4708 44.3299 84.1086 46.1545 85.3842 47.4453C85.5641 47.6285 85.758 47.7974 85.9642 47.9507C87.1928 48.9045 88.8413 49.3802 90.9099 49.3777C92.1061 49.3777 93.1426 49.1988 94.0194 48.841C94.9002 48.479 95.6638 47.8822 96.2261 47.1163C96.7941 47.8852 97.5653 48.4822 98.4537 48.841C99.3394 49.1975 100.358 49.3777 101.518 49.3777C103.907 49.3777 105.748 48.7335 107.042 47.4453C107.291 47.1997 107.517 46.9311 107.715 46.6432C107.799 46.5272 107.877 46.4069 107.948 46.2828C108.025 46.1586 108.098 46.0297 108.162 45.8979C108.606 46.5124 109.141 47.0559 109.749 47.5098C110.158 47.8163 110.593 48.086 111.05 48.3157C112.443 49.0212 114.046 49.3739 115.858 49.3739C118.766 49.3739 120.977 48.512 122.492 46.7882L120.172 44.2822L120 44.1125ZM112.413 37.5407C113.016 36.917 113.823 36.5285 114.688 36.4456C114.885 36.4215 115.082 36.4095 115.28 36.4096C116.238 36.4096 117.053 36.658 117.733 37.1558C118.403 37.64 118.878 38.3458 119.074 39.1469L115.501 39.841L111.249 40.6669C111.29 39.3328 111.68 38.2945 112.414 37.5407H112.413Z" fill="white"/>
<path d="M123.599 31.7219C123.543 31.7219 123.487 31.7219 123.431 31.7219V31.7172C123.487 31.7181 123.543 31.7181 123.599 31.7219Z" fill="white"/>
<path d="M124.447 31.7825C124.173 31.7522 123.89 31.7342 123.599 31.7219C123.89 31.7294 124.173 31.7503 124.447 31.7825Z" fill="white"/>
<path d="M125.243 31.9039C124.989 31.8527 124.723 31.8091 124.447 31.7825C124.715 31.8091 124.98 31.8496 125.243 31.9039Z" fill="white"/>
<path d="M125.988 32.085C125.75 32.0158 125.501 31.9551 125.244 31.9039C125.495 31.9509 125.743 32.0113 125.988 32.085Z" fill="white"/>
<path d="M125.896 38.6539C125.896 38.7013 125.904 38.7487 125.905 38.799C125.896 38.6823 125.886 38.5705 125.875 38.4614C125.875 38.4918 125.885 38.5221 125.886 38.5562C125.888 38.5904 125.891 38.6217 125.896 38.6539Z" fill="white"/>
<path d="M125.921 39.1593C125.921 39.036 125.912 38.9194 125.905 38.8037C125.906 38.8192 125.906 38.8347 125.905 38.8502C125.917 38.945 125.921 39.0474 125.921 39.1593Z" fill="white"/>
<path d="M125.93 39.4779V42.1147C125.93 42.0654 125.93 42.0199 125.93 41.9706V39.4731C125.93 39.3641 125.93 39.2588 125.93 39.1545C125.927 39.2588 125.93 39.3688 125.93 39.4779Z" fill="white"/>
<path d="M126.679 32.3325C126.453 32.2394 126.222 32.1584 125.987 32.0898C126.222 32.1571 126.453 32.2382 126.679 32.3325Z" fill="white"/>
<path d="M128.678 33.6486C128.598 33.568 128.516 33.4912 128.433 33.4144C128.516 33.4864 128.598 33.5651 128.675 33.6448C128.678 33.6467 128.678 33.6467 128.678 33.6486Z" fill="white"/>
<path d="M151.44 33.1375V41.9706C151.44 44.329 150.791 46.1536 149.495 47.4444C148.198 48.7351 146.357 49.3793 143.971 49.3767C142.815 49.3767 141.795 49.1978 140.91 48.8401C140.022 48.4813 139.251 47.8843 138.683 47.1154C138.12 47.8814 137.357 48.4782 136.476 48.8401C135.598 49.1966 134.562 49.3755 133.367 49.3767C131.301 49.3767 129.652 48.9026 128.422 47.9545H128.417C128.215 47.7998 128.024 47.6309 127.845 47.4491C126.597 46.1849 125.962 44.4087 125.941 42.1204V39.4769C125.941 39.3688 125.941 39.2607 125.933 39.1564C125.925 39.0521 125.933 38.9668 125.921 38.872V38.8398C125.923 38.825 125.923 38.81 125.921 38.7952C125.919 38.7712 125.919 38.7471 125.921 38.7231C125.923 38.6992 125.923 38.675 125.921 38.6511C125.921 38.6188 125.913 38.5828 125.909 38.5506C125.909 38.5188 125.906 38.4871 125.901 38.4557C125.893 38.3913 125.884 38.3315 125.877 38.2718C125.873 38.2216 125.865 38.1718 125.852 38.1229C125.844 38.0547 125.832 37.9911 125.821 37.9229C125.708 37.354 125.522 36.8941 125.264 36.5433V36.5357C125.236 36.4987 125.208 36.4627 125.176 36.4267C125.115 36.3539 125.049 36.2858 124.979 36.2228C124.919 36.166 124.856 36.1137 124.788 36.0664C124.721 36.0183 124.651 35.9739 124.579 35.9336C124.542 35.9127 124.505 35.894 124.466 35.8777C124.35 35.8204 124.228 35.7735 124.104 35.7374C124.003 35.7058 123.901 35.6805 123.798 35.6615C123.693 35.6406 123.58 35.6293 123.471 35.6169C123.363 35.6046 123.238 35.6046 123.113 35.6046C122.988 35.6046 122.875 35.6093 122.763 35.6169C122.682 35.5126 122.602 35.4083 122.521 35.3078C121.795 34.4085 120.886 33.6722 119.854 33.147C119.598 33.0138 119.335 32.8948 119.065 32.7904C119.377 32.5694 119.713 32.3864 120.068 32.2453C120.942 31.8881 121.977 31.7089 123.173 31.7076C123.268 31.7076 123.364 31.7076 123.459 31.7076C123.511 31.7076 123.567 31.7076 123.624 31.7076C123.918 31.72 124.196 31.7399 124.474 31.7683C124.752 31.7968 125.018 31.8404 125.271 31.8887C125.524 31.9371 125.775 32.0006 126.012 32.0727C126.248 32.1392 126.479 32.2197 126.705 32.3135C126.814 32.3571 126.923 32.4083 127.027 32.4538C127.027 32.4538 127.035 32.4538 127.04 32.4538C127.135 32.506 127.237 32.5544 127.338 32.6103H127.345C127.41 32.6463 127.474 32.6786 127.536 32.7184C127.621 32.7667 127.701 32.8189 127.782 32.8748C127.832 32.9036 127.88 32.9353 127.926 32.9697C127.983 33.0095 128.044 33.054 128.1 33.0977C128.125 33.1149 128.149 33.1336 128.172 33.1536L128.221 33.1896C128.302 33.2541 128.378 33.3224 128.454 33.3906C128.54 33.4652 128.622 33.544 128.7 33.6267C128.781 33.7073 128.857 33.7879 128.934 33.8761C129.082 34.0432 129.22 34.2185 129.348 34.4014C129.886 35.1958 130.252 36.0928 130.424 37.0354C130.472 37.2724 130.508 37.5209 130.537 37.7731C130.548 37.8774 130.561 37.9855 130.568 38.0935C130.597 38.415 130.609 38.7478 130.609 39.092V41.5904C130.609 41.6748 130.609 41.7544 130.609 41.835C130.638 43.042 130.863 43.9324 131.294 44.5212C131.753 45.1432 132.466 45.4561 133.444 45.4561C134.44 45.4561 135.177 45.14 135.656 44.5079C136.132 43.8736 136.373 42.896 136.373 41.5923V33.1157H141.032V41.5923C141.032 42.9001 141.271 43.872 141.749 44.5079C142.227 45.1438 142.964 45.4599 143.961 45.4561C144.935 45.4561 145.651 45.1444 146.111 44.5212C146.571 43.8979 146.799 42.921 146.796 41.5904V33.1138L151.44 33.1375Z" fill="white"/>
<path d="M130.545 38.1163C130.573 38.4378 130.586 38.7706 130.586 39.1148V41.6132C130.586 41.6976 130.586 41.7772 130.586 41.8578V39.1204C130.59 38.7715 130.577 38.4387 130.545 38.1163Z" fill="white"/>
<path d="M159.132 26.4454C158.593 25.9713 157.894 25.7314 157.043 25.7314C156.191 25.7314 155.487 25.9798 154.947 26.4776C154.693 26.7131 154.49 26.9982 154.352 27.3152C154.213 27.6322 154.142 27.9742 154.142 28.3199C154.142 28.6656 154.213 29.0076 154.352 29.3246C154.49 29.6415 154.693 29.9267 154.947 30.1622C155.486 30.6603 156.185 30.909 157.043 30.9084C157.9 30.9077 158.597 30.6549 159.132 30.1498C159.395 29.9047 159.603 29.6066 159.742 29.2755C159.881 28.9443 159.948 28.5876 159.938 28.2289C159.944 27.8908 159.875 27.5557 159.736 27.2473C159.596 26.939 159.39 26.6651 159.132 26.4454ZM154.71 33.1375V49.1369H159.37V33.1375H154.71Z" fill="white"/>
<path d="M165.823 26.4454C165.287 25.9713 164.591 25.7314 163.728 25.7314C162.865 25.7314 162.174 25.9798 161.633 26.4776C161.377 26.7125 161.174 26.9974 161.034 27.3145C160.895 27.6315 160.823 27.9738 160.823 28.3199C160.823 28.6659 160.895 29.0082 161.034 29.3253C161.174 29.6423 161.377 29.9273 161.633 30.1622C162.169 30.6603 162.867 30.909 163.728 30.9084C164.589 30.9077 165.287 30.6549 165.823 30.1498C166.362 29.6445 166.629 29.0026 166.629 28.2289C166.635 27.8907 166.567 27.5554 166.427 27.247C166.288 26.9385 166.082 26.6648 165.823 26.4454ZM161.4 33.1375V49.1369H166.067V33.1375H161.4Z" fill="white"/>
<path d="M182.686 34.6849C181.462 33.4959 179.854 32.9014 177.861 32.9014C176.83 32.8882 175.805 33.0746 174.845 33.4504C173.969 33.7892 173.183 34.3226 172.545 35.0101V33.1375H168.096V49.1369H172.756V41.2254C172.756 39.7974 173.103 38.7228 173.799 38.0016C174.494 37.2804 175.431 36.9182 176.61 36.915C177.665 36.915 178.471 37.2276 179.026 37.8527C179.586 38.4747 179.864 39.4248 179.864 40.6916V49.1369H184.524V39.9785C184.524 37.6404 183.911 35.8758 182.686 34.6849Z" fill="white"/>
<path d="M198.502 41.5543C197.912 40.9152 197.159 40.4479 196.323 40.2023C195.262 39.9053 194.185 39.6711 193.097 39.5006C191.921 39.3243 191.067 39.1365 190.526 38.9317C189.984 38.7269 189.72 38.3865 189.72 37.8935C189.72 37.4564 189.966 37.0999 190.466 36.823C190.966 36.5461 191.709 36.4058 192.705 36.4058C194.326 36.3924 195.923 36.803 197.336 37.5967L198.891 34.2923C198.154 33.86 197.224 33.5148 196.096 33.2664C194.982 33.0223 193.845 32.8987 192.705 32.8976C191.174 32.8976 189.845 33.1153 188.717 33.5509C187.589 33.9864 186.732 34.5958 186.146 35.3789C185.561 36.1542 185.253 37.1008 185.267 38.0698C185.267 39.2806 185.578 40.2108 186.206 40.865C186.815 41.5088 187.583 41.9817 188.433 42.2361C189.501 42.5383 190.588 42.7661 191.687 42.9178C192.804 43.0581 193.629 43.2266 194.164 43.4232C194.7 43.6232 194.969 43.9485 194.969 44.4055C194.969 45.3755 193.983 45.8647 192.017 45.8647C191.005 45.8597 189.999 45.7139 189.028 45.4314C188.013 45.147 187.147 44.7743 186.43 44.3173L184.876 47.6492C185.638 48.1422 186.648 48.5556 187.924 48.8818C189.201 49.2111 190.515 49.3768 191.835 49.3748C193.409 49.3748 194.766 49.1624 195.915 48.7339C197.064 48.3053 197.928 47.707 198.528 46.9371C199.121 46.1812 199.438 45.2476 199.428 44.2889C199.428 43.1217 199.118 42.2076 198.502 41.5543Z" fill="white"/>
<path d="M56.9007 26.2623C59.6137 26.2623 61.813 24.0727 61.813 21.3717C61.813 18.6706 59.6137 16.481 56.9007 16.481C54.1876 16.481 51.9883 18.6706 51.9883 21.3717C51.9883 24.0727 54.1876 26.2623 56.9007 26.2623Z" fill="#49A3A3"/>
<path d="M36.8568 26.7174C39.696 26.7174 41.9977 24.4259 41.9977 21.5992C41.9977 18.7725 39.696 16.481 36.8568 16.481C34.0175 16.481 31.7158 18.7725 31.7158 21.5992C31.7158 24.4259 34.0175 26.7174 36.8568 26.7174Z" fill="#FFCE35"/>
<path d="M68.5006 50.2529L60.952 57.7699C60.4807 58.2386 59.8419 58.5018 59.1758 58.5018C58.5097 58.5018 57.8709 58.2386 57.3996 57.7699L48.7329 49.1416C48.4829 48.8925 48.2847 48.5969 48.1496 48.2715C48.0144 47.9461 47.945 47.5974 47.9453 47.2453V32.4539C47.9453 30.0683 50.8425 28.8736 52.5367 30.5575L68.5006 46.4602C68.7512 46.7089 68.9501 47.0045 69.0857 47.3299C69.2214 47.6553 69.2913 48.0042 69.2913 48.3565C69.2913 48.7089 69.2214 49.0577 69.0857 49.3832C68.9501 49.7086 68.7512 50.0041 68.5006 50.2529Z" fill="#E0074C"/>
<path d="M63.2763 39.6248C66.8525 43.1843 72.9582 41.5534 74.2648 36.6855L77.0906 26.1609C78.0496 22.5882 73.6401 20.0547 71.0134 22.6697L63.2763 30.3793C62.6664 30.9863 62.1826 31.707 61.8525 32.5001C61.5224 33.2933 61.3525 34.1435 61.3525 35.0021C61.3525 35.8606 61.5224 36.7108 61.8525 37.504C62.1826 38.2971 62.6664 39.0178 63.2763 39.6248Z" fill="#FFCE35"/>
<path d="M25.2956 50.2528L32.848 57.7727C33.3193 58.2414 33.9581 58.5046 34.6242 58.5046C35.2903 58.5046 35.9291 58.2414 36.4004 57.7727L45.067 49.1444C45.317 48.8954 45.5153 48.5997 45.6504 48.2743C45.7856 47.9489 45.855 47.6002 45.8547 47.2481V32.4567C45.8547 30.0711 42.9575 28.8764 41.2632 30.5603L25.2956 46.4602C25.045 46.7089 24.8461 47.0045 24.7104 47.3299C24.5747 47.6553 24.5049 48.0042 24.5049 48.3565C24.5049 48.7088 24.5747 49.0577 24.7104 49.3831C24.8461 49.7085 25.045 50.0041 25.2956 50.2528Z" fill="#49A3A3"/>
<path d="M30.5197 39.6249C26.9435 43.1843 20.8378 41.5534 19.5311 36.6855L16.7054 26.1694C15.7463 22.5967 20.1559 20.0632 22.7825 22.6783L30.5197 30.3821C31.7491 31.6087 32.4396 33.2707 32.4396 35.0035C32.4396 36.7363 31.7491 38.3983 30.5197 39.6249Z" fill="#E2E2E2"/>
</svg>
