<svg width="108" height="41" viewBox="0 0 108 41" fill="none" xmlns="http://www.w3.org/2000/svg">
<path d="M60.0002 24.1151C59.742 24.3925 59.4353 24.6109 59.0983 24.7573C58.7417 24.8992 58.3641 24.9683 57.9845 24.961C57.9059 24.961 57.8273 24.9568 57.7507 24.9522C57.3221 24.9237 56.9554 24.8184 56.6473 24.6344C56.286 24.4196 56.0037 24.0758 55.8478 23.661L57.7526 23.2598L60.0826 22.769L61.7969 22.4061C61.7969 21.4966 61.6102 20.7083 61.2369 20.041C61.1472 19.8797 61.0476 19.7253 60.9388 19.5786C60.6119 19.1349 60.2023 18.7719 59.7369 18.5135C59.5558 18.4117 59.368 18.3251 59.1749 18.2543C58.9459 18.1687 58.7108 18.1034 58.4721 18.0589C58.1985 18.0101 57.9217 17.986 57.6445 17.9868C56.8286 17.9868 56.0949 18.179 55.4435 18.5632C55.0914 18.7679 54.7702 19.0301 54.4911 19.3407V18.1175H52.1611V22.7513C52.1611 23.477 52.0462 24.0111 51.8164 24.3535C51.5865 24.6959 51.2281 24.8663 50.7411 24.8646C50.244 24.8646 49.8756 24.6918 49.6359 24.3462C49.3978 23.9995 49.2773 23.4651 49.2773 22.7524V18.1185H46.9454V22.7524C46.9454 23.4673 46.8259 23.9986 46.5869 24.3462C46.3478 24.6939 45.9792 24.8667 45.4811 24.8646C44.9938 24.8646 44.6354 24.6942 44.4059 24.3535C44.1764 24.0128 44.0623 23.4787 44.0635 22.7513V21.3835C44.0635 20.0949 43.7448 19.0976 43.1073 18.3917C43.0177 18.2929 42.9222 18.2007 42.8216 18.1154C42.2316 17.6199 41.4564 17.3612 40.4883 17.3379V19.475C40.8892 19.5102 41.1911 19.6787 41.393 19.9772C41.6226 20.3209 41.7354 20.8537 41.7354 21.5794V22.9447C41.7354 24.2339 42.0543 25.2314 42.6921 25.937C42.782 26.0371 42.879 26.1295 42.9821 26.2133C43.5964 26.7347 44.4207 26.9947 45.4549 26.9934C46.053 26.9934 46.5713 26.8956 47.0097 26.7C47.4501 26.5021 47.8319 26.1759 48.113 25.7571C48.3971 26.1775 48.7826 26.5039 49.2269 26.7C49.6697 26.8949 50.1792 26.9934 50.7592 26.9934C51.9535 26.9934 52.8742 26.6412 53.5211 25.937C53.6457 25.8028 53.7583 25.6559 53.8573 25.4985C53.8994 25.4351 53.9383 25.3694 53.974 25.3015C54.0126 25.2336 54.0488 25.1631 54.0811 25.0911C54.3029 25.427 54.5704 25.7242 54.8745 25.9723C55.0789 26.1398 55.2965 26.2873 55.5249 26.4128C56.2215 26.7985 57.0229 26.9913 57.9292 26.9913C59.3829 26.9913 60.4884 26.5201 61.2459 25.5778L60.0859 24.2079L60.0002 24.1151ZM56.2064 20.5225C56.5077 20.1815 56.9113 19.9692 57.344 19.9238C57.4423 19.9107 57.5412 19.9041 57.6402 19.9041C58.1192 19.9041 58.5264 20.04 58.8664 20.3121C59.2015 20.5768 59.4391 20.9626 59.5369 21.4006L57.7507 21.78L55.6245 22.2315C55.6449 21.5022 55.8402 20.9346 56.2069 20.5225H56.2064Z" fill="white"/>
<path d="M61.7991 17.3405C61.771 17.3405 61.7429 17.3405 61.7148 17.3405V17.3379C61.7429 17.3384 61.771 17.3384 61.7991 17.3405Z" fill="white"/>
<path d="M62.2251 17.375C62.0879 17.3584 61.9465 17.3485 61.8008 17.3418C61.9465 17.3459 62.0879 17.3573 62.2251 17.375Z" fill="white"/>
<path d="M62.6208 17.4413C62.4936 17.4134 62.3603 17.3895 62.2227 17.375C62.3563 17.3895 62.4892 17.4117 62.6208 17.4413Z" fill="white"/>
<path d="M62.993 17.5404C62.8739 17.5026 62.7497 17.4694 62.6211 17.4414C62.7466 17.4671 62.8708 17.5001 62.993 17.5404Z" fill="white"/>
<path d="M62.948 21.1306C62.948 21.1565 62.9518 21.1824 62.9527 21.2099C62.948 21.1462 62.9432 21.085 62.9375 21.0254C62.9375 21.042 62.9423 21.0586 62.9432 21.0772C62.9442 21.0959 62.9456 21.113 62.948 21.1306Z" fill="white"/>
<path d="M62.9612 21.4073C62.9612 21.3399 62.9565 21.2761 62.9531 21.2129C62.9537 21.2213 62.9537 21.2298 62.9531 21.2383C62.9588 21.2901 62.9612 21.3461 62.9612 21.4073Z" fill="white"/>
<path d="M63.3379 17.6757C63.2249 17.6248 63.1095 17.5805 62.9922 17.543C63.1097 17.5798 63.2252 17.6241 63.3379 17.6757Z" fill="white"/>
<path d="M64.3377 18.3937C64.2977 18.3496 64.2567 18.3076 64.2148 18.2656C64.2567 18.305 64.2977 18.348 64.3363 18.3916C64.3377 18.3926 64.3377 18.3926 64.3377 18.3937Z" fill="white"/>
<path d="M75.7184 18.1156V22.9444C75.7184 24.2337 75.3943 25.2311 74.746 25.9367C74.0978 26.6424 73.1771 26.9945 71.9841 26.9931C71.406 26.9931 70.8959 26.8953 70.4536 26.6997C70.0094 26.5036 69.6239 26.1772 69.3398 25.7569C69.0587 26.1756 68.6769 26.5019 68.2365 26.6997C67.7978 26.8946 67.2797 26.9924 66.6822 26.9931C65.6489 26.9931 64.8246 26.7339 64.2094 26.2156H64.207C64.1058 26.1311 64.0103 26.0387 63.9213 25.9393C63.2971 25.2482 62.9797 24.2772 62.9689 23.0263V21.5812C62.9689 21.5221 62.9689 21.463 62.9651 21.406C62.9613 21.349 62.9651 21.3023 62.9589 21.2505V21.2329C62.9599 21.2248 62.9599 21.2166 62.9589 21.2085C62.9579 21.1954 62.9579 21.1822 62.9589 21.1691C62.9602 21.156 62.9602 21.1428 62.9589 21.1297C62.9589 21.1121 62.9551 21.0924 62.9532 21.0748C62.9528 21.0574 62.9514 21.0401 62.9489 21.0229C62.9451 20.9877 62.9408 20.955 62.937 20.9224C62.9349 20.8949 62.9308 20.8677 62.9246 20.841C62.9208 20.8037 62.9146 20.769 62.9089 20.7316C62.8524 20.4206 62.7597 20.1693 62.6308 19.9775V19.9733C62.6165 19.9531 62.6027 19.9334 62.5865 19.9137C62.5562 19.874 62.5233 19.8367 62.4879 19.8023C62.4582 19.7712 62.4263 19.7426 62.3927 19.7168C62.359 19.6905 62.3241 19.6662 62.2879 19.6442C62.2698 19.6328 62.251 19.6225 62.2317 19.6136C62.1734 19.5823 62.1127 19.5566 62.0503 19.5369C62.0002 19.5197 61.9491 19.5058 61.8974 19.4954C61.8451 19.484 61.7884 19.4778 61.7341 19.4711C61.6798 19.4643 61.6174 19.4643 61.5551 19.4643C61.4927 19.4643 61.436 19.4669 61.3798 19.4711C61.3393 19.414 61.2993 19.357 61.2589 19.3021C60.8958 18.8105 60.4415 18.4079 59.9255 18.1208C59.7975 18.048 59.6659 17.9829 59.5312 17.9259C59.6868 17.8051 59.8552 17.705 60.0327 17.6279C60.4695 17.4326 60.987 17.3347 61.5851 17.334C61.6327 17.334 61.6803 17.334 61.7279 17.334C61.7541 17.334 61.7822 17.334 61.8108 17.334C61.9574 17.3407 62.0965 17.3516 62.2355 17.3672C62.3746 17.3827 62.5074 17.4066 62.6341 17.433C62.7608 17.4594 62.886 17.4941 63.0046 17.5335C63.1224 17.5699 63.2382 17.6139 63.3513 17.6652C63.4055 17.689 63.4598 17.717 63.5122 17.7419C63.5122 17.7419 63.516 17.7419 63.5184 17.7419C63.566 17.7704 63.617 17.7969 63.6674 17.8274H63.6713C63.7036 17.8471 63.7355 17.8648 63.7665 17.8865C63.8089 17.913 63.8489 17.9415 63.8893 17.9721C63.9144 17.9878 63.9386 18.0051 63.9617 18.0239C63.9898 18.0457 64.0203 18.07 64.0484 18.0939C64.061 18.1033 64.0731 18.1135 64.0846 18.1244L64.1089 18.1441C64.1493 18.1794 64.1874 18.2167 64.2255 18.254C64.2685 18.2948 64.3095 18.3379 64.3484 18.3831C64.3889 18.4271 64.427 18.4712 64.4655 18.5194C64.5396 18.6107 64.6087 18.7066 64.6727 18.8066C64.9415 19.2409 65.1246 19.7312 65.2103 20.2465C65.2346 20.3761 65.2527 20.5119 65.267 20.6497C65.2727 20.7068 65.2789 20.7659 65.2827 20.8249C65.297 21.0007 65.3032 21.1826 65.3032 21.3707V22.7366C65.3032 22.7827 65.3032 22.8262 65.3032 22.8703C65.3174 23.5301 65.4298 24.0168 65.6455 24.3387C65.8751 24.6787 66.2317 24.8498 66.7208 24.8498C67.2186 24.8498 67.5871 24.677 67.8265 24.3315C68.0646 23.9847 68.1851 23.4503 68.1851 22.7376V18.1037H70.5146V22.7376C70.5146 23.4525 70.6341 23.9838 70.8732 24.3315C71.1122 24.6791 71.4808 24.8519 71.9789 24.8498C72.4659 24.8498 72.8243 24.6794 73.0541 24.3387C73.284 23.998 73.3981 23.4639 73.3965 22.7366V18.1027L75.7184 18.1156Z" fill="white"/>
<path d="M65.2734 20.8379C65.2877 21.0136 65.2939 21.1955 65.2939 21.3837V22.7495C65.2939 22.7956 65.2939 22.8392 65.2939 22.8832V21.3868C65.2958 21.1961 65.2896 21.0141 65.2734 20.8379Z" fill="white"/>
<path d="M79.5656 14.4567C79.2961 14.1975 78.9466 14.0664 78.5208 14.0664C78.0951 14.0664 77.7432 14.2022 77.4732 14.4743C77.3461 14.6031 77.2447 14.7589 77.1754 14.9322C77.1061 15.1055 77.0703 15.2925 77.0703 15.4814C77.0703 15.6704 77.1061 15.8574 77.1754 16.0307C77.2447 16.204 77.3461 16.3598 77.4732 16.4886C77.7427 16.7609 78.092 16.8968 78.5208 16.8965C78.9497 16.8961 79.298 16.7579 79.5656 16.4818C79.6972 16.3478 79.8012 16.1849 79.8706 16.0038C79.9401 15.8228 79.9734 15.6278 79.9685 15.4317C79.9715 15.2469 79.9369 15.0637 79.8673 14.8951C79.7976 14.7266 79.6946 14.5769 79.5656 14.4567ZM77.3546 18.1151V26.8614H79.6847V18.1151H77.3546Z" fill="white"/>
<path d="M82.9101 14.4567C82.642 14.1975 82.2939 14.0664 81.8625 14.0664C81.4311 14.0664 81.0853 14.2022 80.8149 14.4743C80.6872 14.6027 80.5854 14.7585 80.5158 14.9318C80.4461 15.1051 80.4102 15.2923 80.4102 15.4814C80.4102 15.6706 80.4461 15.8578 80.5158 16.0311C80.5854 16.2044 80.6872 16.3602 80.8149 16.4886C81.0828 16.7609 81.432 16.8968 81.8625 16.8965C82.293 16.8961 82.6422 16.7579 82.9101 16.4818C83.1796 16.2056 83.313 15.8546 83.313 15.4317C83.3163 15.2469 83.2819 15.0635 83.2122 14.8949C83.1425 14.7263 83.0393 14.5766 82.9101 14.4567ZM80.6987 18.1151V26.8614H83.032V18.1151H80.6987Z" fill="white"/>
<path d="M91.3421 18.9617C90.73 18.3117 89.9259 17.9867 88.9297 17.9867C88.4139 17.9794 87.9017 18.0814 87.4216 18.2868C86.9837 18.472 86.5903 18.7636 86.2716 19.1395V18.1158H84.0469V26.8621H86.3769V22.5371C86.3769 21.7565 86.5507 21.1691 86.8983 20.7748C87.2459 20.3805 87.7145 20.1825 88.304 20.1808C88.8316 20.1808 89.2343 20.3517 89.5121 20.6934C89.7921 21.0334 89.9312 21.5528 89.9312 22.2453V26.8621H92.2612V21.8555C92.2608 20.5773 91.9545 19.6127 91.3421 18.9617Z" fill="white"/>
<path d="M99.2504 22.7167C98.9555 22.3674 98.5789 22.1119 98.1608 21.9776C97.6306 21.8153 97.0921 21.6872 96.548 21.594C95.9599 21.4976 95.5332 21.395 95.2623 21.283C94.9913 21.1711 94.8594 20.985 94.8594 20.7155C94.8594 20.4765 94.9823 20.2816 95.2323 20.1303C95.4823 19.9789 95.8542 19.9022 96.3518 19.9022C97.1627 19.8949 97.9613 20.1193 98.6675 20.5532L99.4451 18.7468C99.0766 18.5105 98.6113 18.3218 98.0475 18.186C97.4906 18.0526 96.922 17.985 96.3518 17.9844C95.5864 17.9844 94.9218 18.1034 94.358 18.3415C93.7942 18.5796 93.3656 18.9127 93.0723 19.3408C92.7802 19.7647 92.6258 20.2821 92.6332 20.8119C92.6332 21.4738 92.7885 21.9823 93.1027 22.3399C93.4069 22.6918 93.7909 22.9503 94.2161 23.0894C94.7498 23.2546 95.2935 23.3792 95.8432 23.4621C96.4013 23.5388 96.814 23.6309 97.0813 23.7384C97.3494 23.8477 97.4842 24.0255 97.4842 24.2754C97.4842 24.8056 96.9908 25.0731 96.008 25.0731C95.5022 25.0703 94.9992 24.9906 94.5137 24.8362C94.0061 24.6807 93.5732 24.477 93.2146 24.2272L92.4375 26.0486C92.8185 26.3181 93.3237 26.5441 93.9613 26.7224C94.6 26.9024 95.2572 26.993 95.917 26.9919C96.7042 26.9919 97.3827 26.8758 97.957 26.6415C98.5313 26.4073 98.9637 26.0802 99.2637 25.6593C99.5599 25.2461 99.7186 24.7357 99.7137 24.2116C99.7137 23.5735 99.5585 23.0739 99.2504 22.7167Z" fill="white"/>
<path d="M28.4523 14.3569C29.8088 14.3569 30.9085 13.1599 30.9085 11.6833C30.9085 10.2068 29.8088 9.00977 28.4523 9.00977C27.0958 9.00977 25.9961 10.2068 25.9961 11.6833C25.9961 13.1599 27.0958 14.3569 28.4523 14.3569Z" fill="#49A3A3"/>
<path d="M18.4299 14.6057C19.8495 14.6057 21.0003 13.353 21.0003 11.8077C21.0003 10.2625 19.8495 9.00977 18.4299 9.00977C17.0102 9.00977 15.8594 10.2625 15.8594 11.8077C15.8594 13.353 17.0102 14.6057 18.4299 14.6057Z" fill="#FFCE35"/>
<path d="M34.2503 27.4708L30.476 31.5801C30.2404 31.8363 29.9209 31.9802 29.5879 31.9802C29.2549 31.9802 28.9354 31.8363 28.6998 31.5801L24.3665 26.8633C24.2415 26.7272 24.1424 26.5655 24.0748 26.3876C24.0072 26.2098 23.9725 26.0191 23.9727 25.8266V17.7407C23.9727 16.4366 25.4212 15.7835 26.2684 16.704L34.2503 25.3975C34.3756 25.5335 34.475 25.695 34.5429 25.8729C34.6107 26.0508 34.6456 26.2415 34.6456 26.4341C34.6456 26.6267 34.6107 26.8175 34.5429 26.9953C34.475 27.1732 34.3756 27.3348 34.2503 27.4708Z" fill="#E0074C"/>
<path d="M31.6376 21.662C33.4257 23.6078 36.4786 22.7162 37.1319 20.0551L38.5448 14.3016C39.0243 12.3486 36.8196 10.9636 35.5062 12.3932L31.6376 16.6077C31.3327 16.9395 31.0908 17.3335 30.9258 17.7671C30.7607 18.2007 30.6758 18.6655 30.6758 19.1348C30.6758 19.6042 30.7607 20.0689 30.9258 20.5025C31.0908 20.9361 31.3327 21.3301 31.6376 21.662Z" fill="#FFCE35"/>
<path d="M12.6493 27.4712L16.4255 31.5821C16.6611 31.8383 16.9805 31.9822 17.3136 31.9822C17.6466 31.9822 17.966 31.8383 18.2017 31.5821L22.535 26.8653C22.66 26.7291 22.7591 26.5675 22.8267 26.3896C22.8942 26.2117 22.9289 26.0211 22.9288 25.8286V17.7426C22.9288 16.4385 21.4802 15.7854 20.6331 16.706L12.6493 25.3979C12.524 25.5338 12.4245 25.6954 12.3567 25.8733C12.2888 26.0512 12.2539 26.2419 12.2539 26.4345C12.2539 26.6271 12.2888 26.8179 12.3567 26.9957C12.4245 27.1736 12.524 27.3352 12.6493 27.4712Z" fill="#49A3A3"/>
<path d="M15.2594 21.6612C13.4713 23.607 10.4184 22.7155 9.76507 20.0544L8.35221 14.3056C7.87269 12.3525 10.0774 10.9675 11.3908 12.3971L15.2594 16.6085C15.8741 17.279 16.2193 18.1876 16.2193 19.1348C16.2193 20.0821 15.8741 20.9907 15.2594 21.6612Z" fill="#E2E2E2"/>
</svg>
