<svg width="24" height="24" viewBox="0 0 24 24" fill="none" xmlns="http://www.w3.org/2000/svg">
<path fill-rule="evenodd" clip-rule="evenodd" d="M16 3.75001C16.9577 3.75001 17.3492 3.75234 17.6648 3.80233C19.4834 4.09036 20.9096 5.51662 21.1977 7.33516C21.2477 7.65083 21.25 8.04234 21.25 9.00001V9.50001C21.25 9.91422 21.5858 10.25 22 10.25C22.4142 10.25 22.75 9.91422 22.75 9.50001V9.00001L22.75 8.91921C22.7501 8.06718 22.7501 7.54819 22.6792 7.10051C22.2895 4.64013 20.3599 2.71049 17.8995 2.3208C17.4518 2.2499 16.9328 2.24994 16.0808 2.25L16 2.25001H10L9.96644 2.25001C8.59472 2.25 7.51929 2.25 6.65494 2.32062C5.77479 2.39253 5.04769 2.54139 4.38955 2.87672C3.30762 3.42799 2.42798 4.30763 1.87671 5.38956C1.54138 6.04769 1.39252 6.7748 1.32061 7.65494C1.24999 8.51929 1.25 9.59473 1.25 10.9664V11V13V13.0336C1.25 14.4053 1.24999 15.4807 1.32061 16.3451C1.39252 17.2252 1.54138 17.9523 1.87671 18.6105C2.42798 19.6924 3.30762 20.572 4.38955 21.1233C5.04769 21.4586 5.77479 21.6075 6.65494 21.6794C7.51927 21.75 8.59469 21.75 9.96637 21.75H9.96642H10H16L16.0808 21.75C16.9328 21.7501 17.4518 21.7501 17.8995 21.6792C20.3599 21.2895 22.2895 19.3599 22.6792 16.8995C22.7501 16.4518 22.7501 15.9328 22.75 15.0808L22.75 15V14.5C22.75 14.0858 22.4142 13.75 22 13.75C21.5858 13.75 21.25 14.0858 21.25 14.5V15C21.25 15.9577 21.2477 16.3492 21.1977 16.6649C20.9096 18.4834 19.4834 19.9097 17.6648 20.1977C17.3492 20.2477 16.9577 20.25 16 20.25H10C8.58749 20.25 7.57322 20.2494 6.77708 20.1844C5.9897 20.12 5.48197 19.9964 5.07054 19.7868C4.27085 19.3793 3.62068 18.7292 3.21322 17.9295C3.00359 17.518 2.87996 17.0103 2.81563 16.2229C2.75058 15.4268 2.75 14.4125 2.75 13V11C2.75 9.5875 2.75058 8.57323 2.81563 7.77709C2.87996 6.98971 3.00359 6.48198 3.21322 6.07055C3.62068 5.27086 4.27085 4.62069 5.07054 4.21323C5.48197 4.0036 5.9897 3.87997 6.77708 3.81564C7.57322 3.75059 8.58749 3.75001 10 3.75001H16ZM6.41603 7.37597C6.07138 7.14621 5.60573 7.23934 5.37596 7.58398C5.1462 7.92863 5.23933 8.39428 5.58397 8.62405L6.58397 9.29071L6.70034 9.3683L6.70034 9.36831C8.19864 10.3674 9.09026 10.9619 10.0527 11.2519C11.3227 11.6346 12.6773 11.6346 13.9473 11.2519C14.9097 10.9619 15.8014 10.3674 17.2997 9.3683L17.416 9.29071L18.416 8.62405C18.7607 8.39428 18.8538 7.92863 18.624 7.58398C18.3943 7.23934 17.9286 7.14621 17.584 7.37597L16.584 8.04264C14.9337 9.14282 14.2367 9.59813 13.5145 9.8157C12.5268 10.1133 11.4732 10.1133 10.4855 9.8157C9.76334 9.59813 9.0663 9.14282 7.41603 8.04264L6.41603 7.37597Z" fill="#696969"/>
</svg>
