<svg width="24" height="24" viewBox="0 0 24 24" fill="none" xmlns="http://www.w3.org/2000/svg">
<path fill-rule="evenodd" clip-rule="evenodd" d="M6.37971 2.83051C6.19768 2.76182 5.96102 2.75002 5.08852 2.75002C4.57881 2.75002 4.24376 2.75067 3.98252 2.77329C3.73485 2.79473 3.60708 2.8326 3.51091 2.88033C3.25373 3.00796 2.98298 3.31394 2.8876 3.58474C2.80285 3.82536 2.81457 4.05978 2.92862 4.98994C3.28074 7.86159 4.14416 10.4255 5.43878 12.6188C6.83245 14.9799 8.73201 16.9224 11.0533 18.3627C13.3177 19.7678 15.9941 20.7015 19.0099 21.0714C19.9402 21.1854 20.1746 21.1972 20.4153 21.1124C20.6861 21.017 20.992 20.7463 21.1197 20.4891C21.1666 20.3945 21.205 20.2653 21.2266 20.011C21.2494 19.7441 21.25 19.4009 21.25 18.8812C21.25 18.0311 21.2384 17.8028 21.1695 17.6203C21.0799 17.3829 20.9203 17.1785 20.7117 17.034C20.5518 16.9232 20.3251 16.8544 19.4786 16.6428L18.7703 16.4657C17.6457 16.1845 17.2174 16.0838 16.8057 16.0926C16.4201 16.1008 16.039 16.1776 15.6804 16.3194C15.2974 16.4708 14.9415 16.7295 14.0136 17.4243L13.4495 17.8467C13.1179 18.0949 12.6479 18.0274 12.3996 17.6958C12.1514 17.3643 12.2189 16.8942 12.5505 16.646L13.1145 16.2236C13.1436 16.2019 13.1723 16.1804 13.2006 16.1591C14.0128 15.5507 14.5361 15.1588 15.129 14.9244C15.6532 14.7172 16.2101 14.605 16.7737 14.593C17.4111 14.5794 18.0453 14.7381 19.0298 14.9844C19.0641 14.993 19.0989 15.0017 19.1341 15.0105L19.8424 15.1876C19.8832 15.1977 19.9234 15.2078 19.9631 15.2177C20.6297 15.3837 21.1508 15.5134 21.5658 15.8009C22.0246 16.1187 22.3759 16.5686 22.5729 17.0908C22.7511 17.5631 22.7507 18.0899 22.7501 18.7613C22.75 18.8008 22.75 18.8407 22.75 18.8812V18.9115C22.75 19.3928 22.75 19.8002 22.7212 20.1383C22.6908 20.496 22.6248 20.8304 22.4633 21.1559C22.162 21.763 21.5528 22.3021 20.9136 22.5272C20.3021 22.7426 19.6992 22.668 18.9486 22.5752C18.9086 22.5702 18.8682 22.5652 18.8273 22.5602C15.6136 22.1661 12.7265 21.1663 10.2624 19.6373C7.73479 18.0689 5.66356 15.9506 4.14702 13.3813C2.73938 10.9965 1.81498 8.23244 1.43977 5.1725C1.43476 5.13162 1.42976 5.09119 1.42481 5.05118C1.33197 4.30068 1.25741 3.6979 1.4728 3.0864C1.69795 2.4472 2.23704 1.83797 2.84409 1.5367C3.16802 1.37593 3.4988 1.30956 3.85313 1.27888C4.1867 1.25 4.58702 1.25001 5.05801 1.25002L5.08852 1.25002C5.13054 1.25002 5.17201 1.24999 5.21294 1.24995C5.89983 1.24933 6.43687 1.24885 6.90925 1.42708C7.43143 1.62411 7.8813 1.97536 8.19909 2.43416C8.48657 2.84921 8.61635 3.37033 8.78235 4.03686C8.79224 4.07658 8.80226 4.11682 8.81245 4.15758L8.93474 4.64674C8.94421 4.6846 8.95356 4.72198 8.9628 4.75891C9.22656 5.81299 9.39642 6.49186 9.37039 7.17022C9.34738 7.76973 9.21101 8.35945 8.96848 8.9082C8.69406 9.52912 8.2434 10.0645 7.54365 10.8958C7.51914 10.9249 7.49432 10.9544 7.4692 10.9842L7.04961 11.4829C6.78293 11.7998 6.30981 11.8406 5.99286 11.5739C5.67592 11.3072 5.63517 10.8341 5.90186 10.5172L6.32144 10.0185C7.1211 9.06811 7.4193 8.70278 7.5965 8.30183C7.76244 7.92638 7.85575 7.52288 7.87149 7.1127C7.8883 6.67466 7.78077 6.2155 7.47953 5.01054L7.35724 4.52138C7.14563 3.67494 7.07679 3.44821 6.966 3.28827C6.82155 3.07972 6.61706 2.92006 6.37971 2.83051Z" fill="#696969"/>
</svg>
